<svg xmlns="http://www.w3.org/2000/svg" xmlns:xlink="http://www.w3.org/1999/xlink" viewBox="0 0 16 16"><defs><linearGradient id="linear-gradient" x1="8" x2="8" y2="-10.75" gradientTransform="matrix(1, 0, 0, -1, 0, 0)" gradientUnits="userSpaceOnUse"><stop offset="0" stop-color="#e04300"/><stop offset="1" stop-color="#ffa320"/></linearGradient><linearGradient id="linear-gradient-2" x1="8" y1="-12.7" x2="8" y2="-14" gradientTransform="matrix(1, 0, 0, -1, 0, 0)" gradientUnits="userSpaceOnUse"><stop offset="0" stop-color="#3d0d00"/><stop offset="1" stop-color="#661c04"/></linearGradient><linearGradient id="linear-gradient-3" x1="8" y1="-8.4" x2="8" y2="-11" gradientTransform="matrix(1, 0, 0, -1, 0, 0)" gradientUnits="userSpaceOnUse"><stop offset="0" stop-color="#191a33"/><stop offset="0.87" stop-color="#3b426a"/></linearGradient><linearGradient id="linear-gradient-4" x1="8" y1="-9.33" x2="8" y2="-7" gradientTransform="matrix(1, 0, 0, -1, 0, 0)" gradientUnits="userSpaceOnUse"><stop offset="0" stop-color="#9a2f00"/><stop offset="1" stop-color="#d44800"/></linearGradient></defs><g id="Layer_2" data-name="Layer 2"><g id="Layer_1-2" data-name="Layer 1"><g id="angry"><path d="M16,8a8,8,0,1,1-2.34-5.66A8,8,0,0,1,16,8" fill="url(#linear-gradient)"/><path d="M5.2,13.55c0,.53,1.25.44,2.8.44s2.8.09,2.8-.44S9.55,12.5,8,12.5,5.2,12.91,5.2,13.55Z"/><path d="M5.2,13.55c0,.53,1.25.44,2.8.44s2.8.09,2.8-.44S9.55,12.5,8,12.5,5.2,12.91,5.2,13.55Z" fill="url(#linear-gradient-2)"/><path d="M3.6,9.83A1.33,1.33,0,0,1,4.8,8.4,1.33,1.33,0,0,1,6,9.83a1.62,1.62,0,0,1-.25.88.55.55,0,0,1-.32.22A3.15,3.15,0,0,1,4.8,11a3.15,3.15,0,0,1-.63-.07.55.55,0,0,1-.32-.22,1.63,1.63,0,0,1-.25-.88Zm6.4,0A1.33,1.33,0,0,1,11.2,8.4a1.33,1.33,0,0,1,1.2,1.43,1.62,1.62,0,0,1-.25.88.55.55,0,0,1-.32.22,3.38,3.38,0,0,1-.63.07,3.15,3.15,0,0,1-.63-.07.55.55,0,0,1-.32-.22A1.63,1.63,0,0,1,10,9.83Z" fill="url(#linear-gradient-3)"/><path d="M3.6,9.83A1.33,1.33,0,0,1,4.8,8.4,1.33,1.33,0,0,1,6,9.83a1.62,1.62,0,0,1-.25.88.55.55,0,0,1-.32.22A3.15,3.15,0,0,1,4.8,11a3.15,3.15,0,0,1-.63-.07.55.55,0,0,1-.32-.22,1.63,1.63,0,0,1-.25-.88Zm6.4,0A1.33,1.33,0,0,1,11.2,8.4a1.33,1.33,0,0,1,1.2,1.43,1.62,1.62,0,0,1-.25.88.55.55,0,0,1-.32.22,3.38,3.38,0,0,1-.63.07,3.15,3.15,0,0,1-.63-.07.55.55,0,0,1-.32-.22A1.63,1.63,0,0,1,10,9.83Z"/><path d="M5,9.33s0,.05,0,.07a.39.39,0,0,1-.4.37.38.38,0,0,1-.39-.37.35.35,0,0,1,.08-.22C4.49,9.24,4.73,9.29,5,9.33Zm5.92.44a.38.38,0,0,1-.39-.35l.77-.13a.36.36,0,0,1,0,.11.39.39,0,0,1-.4.37Z" fill="#4f4f67"/><path d="M9,7.6c0-.45.16-.6.44-.6s.42.28.51,1.07a21.6,21.6,0,0,0,3.22-.54.3.3,0,0,1,.32.27.34.34,0,0,1-.22.4,11.17,11.17,0,0,1-4,.93c-.16,0-.28-.08-.28-.3Zm-2.95.47c.09-.79.22-1.07.5-1.07s.45.15.45.6V8.83a.26.26,0,0,1-.29.3,11.16,11.16,0,0,1-4-.93.33.33,0,0,1-.22-.4.3.3,0,0,1,.32-.27A21.6,21.6,0,0,0,6.05,8.07Z"/><path d="M9,7.6c0-.45.16-.6.44-.6s.42.28.51,1.07a21.6,21.6,0,0,0,3.22-.54.3.3,0,0,1,.32.27.34.34,0,0,1-.22.4,11.17,11.17,0,0,1-4,.93c-.16,0-.28-.08-.28-.3Zm-2.95.47c.09-.79.22-1.07.5-1.07s.45.15.45.6V8.83a.26.26,0,0,1-.29.3,11.16,11.16,0,0,1-4-.93.33.33,0,0,1-.22-.4.3.3,0,0,1,.32-.27A21.6,21.6,0,0,0,6.05,8.07Z" fill="url(#linear-gradient-4)"/></g></g></g></svg>