<svg xmlns="http://www.w3.org/2000/svg" xmlns:xlink="http://www.w3.org/1999/xlink" viewBox="0 0 16 16"><defs><linearGradient id="linear-gradient" x1="8" y1="32.36" x2="8" y2="18" gradientTransform="matrix(1, 0, 0, -1, 0, 34)" gradientUnits="userSpaceOnUse"><stop offset="0" stop-color="#feea70"/><stop offset="1" stop-color="#f69b30"/></linearGradient><linearGradient id="linear-gradient-2" x1="8" y1="27" x2="8" y2="20" gradientTransform="matrix(1, 0, 0, -1, 0, 34)" gradientUnits="userSpaceOnUse"><stop offset="0" stop-color="#472315"/><stop offset="1" stop-color="#8b3a0e"/></linearGradient><linearGradient id="linear-gradient-3" x1="8" y1="23" x2="8" y2="20.54" gradientTransform="matrix(1, 0, 0, -1, 0, 34)" gradientUnits="userSpaceOnUse"><stop offset="0" stop-color="#fc607c"/><stop offset="1" stop-color="#d91f3a"/></linearGradient></defs><g id="Layer_2" data-name="Layer 2"><g id="Layer_1-2" data-name="Layer 1"><g id="haha"><path d="M16,8a8,8,0,1,1-2.34-5.66A8,8,0,0,1,16,8" fill="url(#linear-gradient)"/><path d="M3,8c0,2,1,6,5,6s5-4,5-6c0-.16-1.61-1-5-1S3,7.85,3,8Z" fill="url(#linear-gradient-2)"/><path d="M4.54,12.5A4.15,4.15,0,0,0,8,14a4.14,4.14,0,0,0,3.46-1.5A4.51,4.51,0,0,0,8,11,4.54,4.54,0,0,0,4.54,12.5Z" fill="url(#linear-gradient-3)"/><path d="M6.21,4.14a.76.76,0,0,1,.41.79c-.07.26-.19.37-.42.37a6.88,6.88,0,0,0-2.51.61A.77.77,0,0,1,3.36,6,.34.34,0,0,1,3,5.76c-.07-.15-.08-.39.27-.6a5.84,5.84,0,0,1,1.91-.6,7.5,7.5,0,0,0-1.31-.77c-.43-.19-.38-.45-.33-.6.13-.31.61-.19,1.08,0a8.33,8.33,0,0,1,1.55.92Zm3.58,0a8.33,8.33,0,0,1,1.55-.92c.47-.22.95-.34,1.08,0,.05.15.1.41-.33.6a7.5,7.5,0,0,0-1.31.77,5.84,5.84,0,0,1,1.91.6c.35.21.34.44.27.6a.34.34,0,0,1-.32.24.87.87,0,0,1-.34-.09A6.79,6.79,0,0,0,9.8,5.3c-.23,0-.35-.11-.42-.37a.77.77,0,0,1,.41-.79Z" fill="#2a3755"/></g></g></g></svg>