<svg xmlns="http://www.w3.org/2000/svg" xmlns:xlink="http://www.w3.org/1999/xlink" viewBox="0 0 16 16"><defs><linearGradient id="linear-gradient" x1="8" y1="34" x2="8" y2="18" gradientTransform="matrix(1, 0, 0, -1, 0, 34)" gradientUnits="userSpaceOnUse"><stop offset="0" stop-color="#18afff"/><stop offset="1" stop-color="#0062df"/></linearGradient></defs><g id="Layer_2" data-name="Layer 2"><g id="Layer_1-2" data-name="Layer 1"><g id="like"><path d="M8,0a8,8,0,1,0,5.66,2.34A8,8,0,0,0,8,0Z" fill="url(#linear-gradient)"/><path d="M12.16,7.34A.66.66,0,0,1,12.5,8a.74.74,0,0,1-.47.73.68.68,0,0,1,.08.54,1,1,0,0,1-.67.69.54.54,0,0,1,0,.62c-.19.3-.35.41-1.06.41H7.5c-1,0-1.5-.55-1.5-1V7.66C6,6.43,7.47,5.39,7.47,4.53L7.36,3.47a.49.49,0,0,1,.06-.27A.93.93,0,0,1,8.05,3a1.16,1.16,0,0,1,.54.12,1.62,1.62,0,0,1,.73,1.54A12.33,12.33,0,0,1,8.85,6a10.36,10.36,0,0,1,1.88-.2c1.06,0,1.75.19,1.75.84a1.32,1.32,0,0,1-.32.67ZM3.6,7h.8a.62.62,0,0,1,.6.6v3.8a.62.62,0,0,1-.6.6H3.6a.62.62,0,0,1-.6-.6V7.6A.62.62,0,0,1,3.6,7Z" fill="#fff"/></g></g></g></svg>