<?xml version="1.0" encoding="utf-8"?>
<!-- Generator: Adobe Illustrator 26.0.2, SVG Export Plug-In . SVG Version: 6.00 Build 0)  -->
<svg version="1.1" id="reactions" xmlns="http://www.w3.org/2000/svg" xmlns:xlink="http://www.w3.org/1999/xlink" x="0px" y="0px"
	 viewBox="0 0 16 16" style="enable-background:new 0 0 16 16;" xml:space="preserve">
<path d="M16,9.3c0-0.5-0.2-1-0.6-1.4c0.3-0.4,0.4-0.8,0.3-1.2C15.6,5.7,14.8,5,13.8,5h-2.9l0.2-1.4c0-0.4,0-0.8,0-1.1
	C10.7,1.1,9.5,0,8,0C7.7,0,7.3,0.2,7.1,0.4C6.8,0.7,6.7,1,6.7,1.3v1.8c0,0.8-0.2,1.5-0.6,2.2L5.3,6.6C5.2,6.8,5,6.9,4.9,7
	C4.7,6.5,4.3,6.1,3.7,6.1H1.2C0.5,6.1,0,6.7,0,7.3v7.4C0,15.4,0.5,16,1.2,16h2.6C4.4,16,5,15.4,5,14.8v-0.2c0.6,0.5,1.3,0.8,2.1,0.8
	h5.6c0.5,0,1-0.2,1.4-0.6c0.4-0.4,0.5-0.8,0.5-1.3c0-0.2,0-0.3-0.1-0.5c0.6-0.3,1-0.9,1-1.6c0-0.2,0-0.5-0.1-0.7
	C15.8,10.3,16,9.8,16,9.3L16,9.3z M3.8,14.7C3.8,14.8,3.8,14.8,3.8,14.7l-2.6,0.1c0,0-0.1,0-0.1-0.1l0-7.4c0,0,0-0.1,0.1-0.1h2.6
	c0,0,0.1,0,0.1,0.1L3.8,14.7L3.8,14.7z M14.5,9.9c-0.2,0.1-0.3,0.2-0.4,0.4c0,0.2,0,0.4,0.1,0.6c0.1,0.1,0.2,0.3,0.2,0.4
	c0,0.4-0.3,0.7-0.6,0.7c-0.2,0-0.4,0.2-0.5,0.4c-0.1,0.2-0.1,0.4,0.1,0.6c0.1,0.1,0.1,0.3,0.1,0.4c0,0.2-0.1,0.4-0.2,0.5
	c-0.2,0.2-0.4,0.2-0.6,0.2l-5.6,0c-1.2,0-2.1-0.9-2.1-2.1V8.1C5.5,8,6,7.6,6.3,7.2L7,5.9c0.5-0.8,0.8-1.8,0.8-2.8V1.3
	c0,0,0-0.1,0-0.1c0,0,0.1,0,0.1,0c1,0,1.8,0.7,2,1.6c0,0.2,0.1,0.4,0,0.7L9.8,5c0,0.3,0,0.5,0.2,0.8c0.2,0.2,0.4,0.3,0.7,0.3h3
	c0.4,0,0.8,0.3,0.8,0.7c0,0.3-0.1,0.5-0.3,0.7C14.1,7.6,14,7.8,14,8.1c0,0.2,0.2,0.4,0.4,0.5c0.3,0.1,0.5,0.4,0.5,0.7
	C14.9,9.6,14.7,9.8,14.5,9.9L14.5,9.9z"/>
</svg>
