<svg id="Layer_1" data-name="Layer 1" xmlns="http://www.w3.org/2000/svg" viewBox="0 0 14.18 14.42"><g id="Layer_2" data-name="Layer 2"><g id="reactions"><g id="like_fill" data-name="like fill"><rect y="6.47" width="3.79" height="7.96" rx="0.78" fill="#1778f2"/><path d="M14.18,8.62a1.65,1.65,0,0,0-.41-1.1,1.69,1.69,0,0,0-.57-2.31A2,2,0,0,0,12.63,5H9a4,4,0,0,1,.15-.77A4.16,4.16,0,0,0,8.68,1,1.85,1.85,0,0,0,7.09,0a1.71,1.71,0,0,0-.74.17A.68.68,0,0,0,6,.84a19.61,19.61,0,0,1,.17,2.3,16.93,16.93,0,0,1-.92,1.8,18.82,18.82,0,0,0-.89,1.73c-.12.32-.1.44-.17.51V13.5a2.11,2.11,0,0,0,1.36.5H11a1.67,1.67,0,0,0,1.67-1.67h0a1.61,1.61,0,0,0,0-.31,1.67,1.67,0,0,0,.91-1.49,1.71,1.71,0,0,0-.09-.55A1.67,1.67,0,0,0,14.18,8.62Z" fill="#1778f2"/></g></g></g></svg>