<svg xmlns="http://www.w3.org/2000/svg" xmlns:xlink="http://www.w3.org/1999/xlink" viewBox="0 0 16 16"><defs><linearGradient id="linear-gradient" x1="8" y1="-1.64" x2="8" y2="-16" gradientTransform="matrix(1, 0, 0, -1, 0, 0)" gradientUnits="userSpaceOnUse"><stop offset="0" stop-color="#feea70"/><stop offset="1" stop-color="#f69b30"/></linearGradient><linearGradient id="linear-gradient-2" x1="8" y1="-11" x2="8" y2="-13" gradientTransform="matrix(1, 0, 0, -1, 0, 0)" gradientUnits="userSpaceOnUse"><stop offset="0" stop-color="#472315"/><stop offset="1" stop-color="#8b3a0e"/></linearGradient><linearGradient id="linear-gradient-3" x1="8" y1="-7.33" x2="8" y2="-10" gradientTransform="matrix(1, 0, 0, -1, 0, 0)" gradientUnits="userSpaceOnUse"><stop offset="0" stop-color="#191a33"/><stop offset="0.87" stop-color="#3b426a"/></linearGradient><linearGradient id="linear-gradient-4" x1="8" y1="-4.93" x2="8" y2="-7.2" gradientTransform="matrix(1, 0, 0, -1, 0, 0)" gradientUnits="userSpaceOnUse"><stop offset="0" stop-color="#e78e0d"/><stop offset="1" stop-color="#cb6000"/></linearGradient><linearGradient id="linear-gradient-5" x1="13.5" y1="-15.05" x2="13.5" y2="-11.69" gradientTransform="matrix(1, 0, 0, -1, 0, 0)" gradientUnits="userSpaceOnUse"><stop offset="0" stop-color="#35cafc"/><stop offset="1" stop-color="#007edb"/></linearGradient><linearGradient id="linear-gradient-6" x1="13.5" y1="-11.53" x2="13.5" y2="-13.61" gradientTransform="matrix(1, 0, 0, -1, 0, 0)" gradientUnits="userSpaceOnUse"><stop offset="0" stop-color="#6ae1ff" stop-opacity="0.29"/><stop offset="1" stop-color="#a8e3ff" stop-opacity="0.8"/></linearGradient></defs><g id="Layer_2" data-name="Layer 2"><g id="Layer_1-2" data-name="Layer 1"><g id="sad"><path d="M16,8a8,8,0,1,1-2.34-5.66A8,8,0,0,1,16,8" fill="url(#linear-gradient)"/><path d="M5.33,12.77a.23.23,0,0,0,.25.23A6,6,0,0,1,8,12.38a6,6,0,0,1,2.42.62.23.23,0,0,0,.25-.23A2.61,2.61,0,0,0,8,11,2.61,2.61,0,0,0,5.33,12.77Z" fill="url(#linear-gradient-2)"/><path d="M3.6,8.8A1.34,1.34,0,0,1,4.73,7.33,1.34,1.34,0,0,1,5.87,8.8a1.75,1.75,0,0,1-.24.9.51.51,0,0,1-.3.22,2.29,2.29,0,0,1-.6.08,2.21,2.21,0,0,1-.59-.08.46.46,0,0,1-.3-.22,1.76,1.76,0,0,1-.24-.9Zm6.53,0a1.34,1.34,0,0,1,1.14-1.47A1.34,1.34,0,0,1,12.4,8.8a1.75,1.75,0,0,1-.24.9.43.43,0,0,1-.13.14.38.38,0,0,1-.17.08,2.4,2.4,0,0,1-1.19,0,.38.38,0,0,1-.17-.08.57.57,0,0,1-.13-.14,1.76,1.76,0,0,1-.24-.9Z" fill="url(#linear-gradient-3)"/><path d="M3.6,8.8A1.34,1.34,0,0,1,4.73,7.33,1.34,1.34,0,0,1,5.87,8.8a1.75,1.75,0,0,1-.24.9.51.51,0,0,1-.3.22,2.29,2.29,0,0,1-.6.08,2.21,2.21,0,0,1-.59-.08.46.46,0,0,1-.3-.22,1.76,1.76,0,0,1-.24-.9Zm6.53,0a1.34,1.34,0,0,1,1.14-1.47A1.34,1.34,0,0,1,12.4,8.8a1.75,1.75,0,0,1-.24.9.43.43,0,0,1-.13.14.38.38,0,0,1-.17.08,2.4,2.4,0,0,1-1.19,0,.38.38,0,0,1-.17-.08.57.57,0,0,1-.13-.14,1.76,1.76,0,0,1-.24-.9Z"/><path d="M4.62,8a.46.46,0,0,1,0,.55.29.29,0,0,1-.45.09.46.46,0,0,1,0-.55A.29.29,0,0,1,4.62,8ZM11.1,8a.45.45,0,0,1,0,.55.29.29,0,0,1-.45.09.46.46,0,0,1,0-.55c.12-.18.32-.22.44-.09Z" fill="#4e506a"/><path d="M4.16,5.15A2,2,0,0,1,5,4.93a.57.57,0,0,1,.55.31c.17.33.09.4-.2.46a6.25,6.25,0,0,0-2.7,1.39c-.3.28-.59,0-.43-.28a4.76,4.76,0,0,1,2-1.66Zm6.33.09A.58.58,0,0,1,11,4.93a2,2,0,0,1,.8.22,4.76,4.76,0,0,1,2,1.66c.16.25-.13.56-.43.28a6.25,6.25,0,0,0-2.7-1.39c-.29-.06-.37-.13-.2-.46Z" fill="url(#linear-gradient-4)"/><path d="M13.5,16A1.59,1.59,0,0,1,12,14.33a4.71,4.71,0,0,1,.64-2.15c.6-1.26.72-1.43.86-1.43s.26.17.86,1.43A4.71,4.71,0,0,1,15,14.33,1.59,1.59,0,0,1,13.5,16Z" fill="url(#linear-gradient-5)"/><path d="M13.5,13.61a.63.63,0,0,1-.59-.66,1.9,1.9,0,0,1,.25-.86c.24-.49.28-.56.34-.56s.1.07.34.56a1.9,1.9,0,0,1,.25.86.63.63,0,0,1-.59.66" fill="url(#linear-gradient-6)"/></g></g></g></svg>