<svg xmlns="http://www.w3.org/2000/svg" xmlns:xlink="http://www.w3.org/1999/xlink" viewBox="0 0 16 16"><defs><clipPath id="clip-path"><rect width="16" height="16" fill="none"/></clipPath><linearGradient id="linear-gradient" x1="8" y1="-1.64" x2="8" y2="-16" gradientTransform="matrix(1, 0, 0, -1, 0, 0)" gradientUnits="userSpaceOnUse"><stop offset="0" stop-color="#feea70"/><stop offset="1" stop-color="#f69b30"/></linearGradient><linearGradient id="linear-gradient-2" x1="8" y1="-8" x2="8" y2="-14" gradientTransform="matrix(1, 0, 0, -1, 0, 0)" gradientUnits="userSpaceOnUse"><stop offset="0" stop-color="#472315"/><stop offset="1" stop-color="#8b3a0e"/></linearGradient><linearGradient id="linear-gradient-3" x1="8" y1="-4" x2="8" y2="-7" gradientTransform="matrix(1, 0, 0, -1, 0, 0)" gradientUnits="userSpaceOnUse"><stop offset="0" stop-color="#191a33"/><stop offset="0.87" stop-color="#3b426a"/></linearGradient><linearGradient id="linear-gradient-4" x1="8" y1="-1.69" x2="8" y2="-2.89" gradientTransform="matrix(1, 0, 0, -1, 0, 0)" gradientUnits="userSpaceOnUse"><stop offset="0" stop-color="#e78e0d"/><stop offset="1" stop-color="#cb6000"/></linearGradient></defs><g id="Layer_2" data-name="Layer 2"><g id="Layer_1-2" data-name="Layer 1"><g id="wow"><g clip-path="url(#clip-path)"><path d="M16,8a8,8,0,1,1-2.34-5.66A8,8,0,0,1,16,8" fill="url(#linear-gradient)"/><path d="M5.64,10.89C5.49,12.73,6.37,14,8,14s2.52-1.27,2.36-3.11S9.24,8,8,8,5.8,9,5.64,10.89Z" fill="url(#linear-gradient-2)"/><path d="M3.5,5.5A1.39,1.39,0,0,1,4.75,4,1.39,1.39,0,0,1,6,5.5,1.39,1.39,0,0,1,4.75,7,1.39,1.39,0,0,1,3.5,5.5Zm6.5,0A1.39,1.39,0,0,1,11.25,4,1.39,1.39,0,0,1,12.5,5.5,1.39,1.39,0,0,1,11.25,7,1.39,1.39,0,0,1,10,5.5Z" fill="url(#linear-gradient-3)"/><path d="M3.5,5.5A1.39,1.39,0,0,1,4.75,4,1.39,1.39,0,0,1,6,5.5,1.39,1.39,0,0,1,4.75,7,1.39,1.39,0,0,1,3.5,5.5Zm6.5,0A1.39,1.39,0,0,1,11.25,4,1.39,1.39,0,0,1,12.5,5.5,1.39,1.39,0,0,1,11.25,7,1.39,1.39,0,0,1,10,5.5Z"/><path d="M4.48,4.57A.36.36,0,0,1,4.71,5a.38.38,0,0,1-.44.31A.36.36,0,0,1,4,4.88.39.39,0,0,1,4.48,4.57Zm6.66.06a.41.41,0,0,1,.26.52.44.44,0,0,1-.49.35A.4.4,0,0,1,10.65,5a.43.43,0,0,1,.49-.35Z" fill="#4e506a"/><path d="M11.07,1.7h.16a2,2,0,0,1,1.37.56.36.36,0,0,1,.11.25.35.35,0,0,1-.09.26.28.28,0,0,1-.11.08.33.33,0,0,1-.13,0l-.14,0a.42.42,0,0,1-.12-.08,1.3,1.3,0,0,0-1-.36.64.64,0,0,0-.33.1.71.71,0,0,0-.26.23.43.43,0,0,1-.1.09.28.28,0,0,1-.13,0,.33.33,0,0,1-.14,0l-.12-.07a.39.39,0,0,1-.14-.24A.39.39,0,0,1,10,2.31a1.52,1.52,0,0,1,.48-.43,1.44,1.44,0,0,1,.61-.18ZM3.4,2.25a2.06,2.06,0,0,1,1.38-.56,1.38,1.38,0,0,1,.69.16A1.36,1.36,0,0,1,6,2.31a.39.39,0,0,1,.07.26A.35.35,0,0,1,6,2.81l-.12.07a.33.33,0,0,1-.14,0,.33.33,0,0,1-.13,0,.43.43,0,0,1-.1-.09.71.71,0,0,0-.26-.23.64.64,0,0,0-.33-.1,1.3,1.3,0,0,0-1,.36.42.42,0,0,1-.12.08l-.14,0a.33.33,0,0,1-.13,0,.28.28,0,0,1-.11-.08.39.39,0,0,1-.09-.26.36.36,0,0,1,.11-.25Z"/><path d="M11.07,1.7h.16a2,2,0,0,1,1.37.56.36.36,0,0,1,.11.25.35.35,0,0,1-.09.26.28.28,0,0,1-.11.08.33.33,0,0,1-.13,0l-.14,0a.42.42,0,0,1-.12-.08,1.3,1.3,0,0,0-1-.36.64.64,0,0,0-.33.1.71.71,0,0,0-.26.23.43.43,0,0,1-.1.09.28.28,0,0,1-.13,0,.33.33,0,0,1-.14,0l-.12-.07a.39.39,0,0,1-.14-.24A.39.39,0,0,1,10,2.31a1.52,1.52,0,0,1,.48-.43,1.44,1.44,0,0,1,.61-.18ZM3.4,2.25a2.06,2.06,0,0,1,1.38-.56,1.38,1.38,0,0,1,.69.16A1.36,1.36,0,0,1,6,2.31a.39.39,0,0,1,.07.26A.35.35,0,0,1,6,2.81l-.12.07a.33.33,0,0,1-.14,0,.33.33,0,0,1-.13,0,.43.43,0,0,1-.1-.09.71.71,0,0,0-.26-.23.64.64,0,0,0-.33-.1,1.3,1.3,0,0,0-1,.36.42.42,0,0,1-.12.08l-.14,0a.33.33,0,0,1-.13,0,.28.28,0,0,1-.11-.08.39.39,0,0,1-.09-.26.36.36,0,0,1,.11-.25Z" fill="url(#linear-gradient-4)"/></g></g></g></g></svg>