<svg xmlns="http://www.w3.org/2000/svg" viewBox="0 0 45.5 44.82"><title>user_add</title><g id="Layer_2" data-name="Layer 2"><g id="Layer_1-2" data-name="Layer 1"><g id="user_add"><path d="M22.75,0C16.92,0,12.2,5.45,12.2,11.27s4.72,13,10.55,13,10.55-7.17,10.55-13S28.58,0,22.75,0Zm0,27.12C5.22,27.12,0,30.94,0,38.5v3.79a2.54,2.54,0,0,0,2.53,2.53H43a2.54,2.54,0,0,0,2.53-2.53V38.5C45.5,30.94,40.69,27.12,22.75,27.12Z" fill="#c2cced"/><polygon points="45.27 16.21 41.16 16.21 41.16 12.1 38.32 12.1 38.32 16.21 34.22 16.21 34.22 19.04 38.32 19.04 38.32 23.15 41.16 23.15 41.16 19.04 45.27 19.04 45.27 16.21" fill="#c2cced"/></g></g></g></svg>