<svg xmlns="http://www.w3.org/2000/svg" viewBox="0 0 46.77 44.82"><title>friend</title><g id="Layer_2" data-name="Layer 2"><g id="Layer_1-2" data-name="Layer 1"><g id="friend"><path d="M22.75,0C16.92,0,12.2,5.45,12.2,11.27s4.72,13,10.55,13,10.55-7.17,10.55-13S28.58,0,22.75,0Zm0,27.12C5.22,27.12,0,30.94,0,38.5v3.79a2.54,2.54,0,0,0,2.53,2.53H43a2.54,2.54,0,0,0,2.53-2.53V38.5C45.5,30.94,40.69,27.12,22.75,27.12Z" fill="#c2cced"/><polygon points="36.41 25.61 46.77 15.24 44.42 12.89 36.52 20.78 33.62 17.88 31.15 20.35 36.41 25.61" fill="#c2cced"/></g></g></g></svg>