<svg xmlns="http://www.w3.org/2000/svg" viewBox="0 0 36.87 43.71"><g id="Layer_2" data-name="Layer 2"><g id="Layer_1-2" data-name="Layer 1"><g id="Layer_2-2" data-name="Layer 2"><g id="guard"><g id="guard-2"><path d="M8,11.55A2.65,2.65,0,0,0,6.4,14v6.26a16.55,16.55,0,0,0,12,16,16.55,16.55,0,0,0,12-16V14a2.65,2.65,0,0,0-1.58-2.43,49.6,49.6,0,0,1-10-4,1,1,0,0,0-.71,0A54.2,54.2,0,0,1,8,11.55Z" fill="#c2cced"/><path d="M18.43,43.71h-.18C12.53,42.54,0,34.88,0,19.5V10.41A4.86,4.86,0,0,1,2.88,6l.12,0A77.63,77.63,0,0,0,17.41.19a2.43,2.43,0,0,1,1.87,0A71.94,71.94,0,0,0,33.85,5.94L34,6a4.87,4.87,0,0,1,2.87,4.43V19.5c0,15.36-12.53,23-18.24,24.17ZM4.27,8.45a2.82,2.82,0,0,0-1.59,2.46V19.6C2.68,33,13.36,39.72,18.43,40.84,23.5,39.72,34.19,33,34.19,19.6V10.91a2.83,2.83,0,0,0-1.58-2.46A69.62,69.62,0,0,1,18.43,2.82h-.18A76.25,76.25,0,0,1,4.27,8.45Z" fill="#c2cced"/></g></g></g></g></g></svg>