<svg xmlns="http://www.w3.org/2000/svg" viewBox="0 0 46 44.82"><title>requested</title><g id="Layer_2" data-name="Layer 2"><g id="Layer_1-2" data-name="Layer 1"><g id="requested"><path d="M22.75,0C16.92,0,12.2,5.45,12.2,11.27s4.72,13,10.55,13,10.55-7.17,10.55-13S28.58,0,22.75,0Zm0,27.12C5.22,27.12,0,30.94,0,38.5v3.79a2.54,2.54,0,0,0,2.53,2.53H43a2.54,2.54,0,0,0,2.53-2.53V38.5C45.5,30.94,40.69,27.12,22.75,27.12Z" fill="#c2cced"/><polygon points="46.01 17.78 40.93 22.86 37.29 22.86 41.06 19.08 34.44 19.08 34.44 16.48 41.06 16.48 37.29 12.7 40.93 12.7 46.01 17.78" fill="#c2cced"/></g></g></g></svg>