<svg id="Layer_1" data-name="Layer 1" xmlns="http://www.w3.org/2000/svg" viewBox="0 0 50 50"><g id="worked"><path d="M25.76,31.82h-1.7c-.12,0-.21.15-.21.33v2.73c0,.18.09.33.21.33h1.7c.11,0,.2-.15.2-.33V32.15C26,32,25.87,31.82,25.76,31.82Z" fill="#8f939a"/><path d="M36.29,15.42H32.93V13.07a2.24,2.24,0,0,0-2.24-2.22H19.13a2.24,2.24,0,0,0-2.25,2.22v2.35H13.53A5.09,5.09,0,0,0,8.45,20.5v9a2.62,2.62,0,0,0,1.77,2l11.81,2v-1.3a2.27,2.27,0,0,1,2.27-2.27h1.22a2.27,2.27,0,0,1,2.26,2.27v1.3l11.82-2a2.62,2.62,0,0,0,1.77-2v-9A5.09,5.09,0,0,0,36.29,15.42Zm-5.29,0H18.82V13.07a.29.29,0,0,1,.31-.28H30.69a.29.29,0,0,1,.31.28v2.35Z" fill="#8f939a"/><path d="M38.94,33.35l0,0L27.42,35.46a2.11,2.11,0,0,1-2,1.68h-1a2.12,2.12,0,0,1-2-1.68L10.93,33.37l0,0a3.9,3.9,0,0,1-1.13-.58v3c0,2.29,1.71,3.4,3.82,3.4H36.24c2.11,0,3.82-1.11,3.82-3.4v-3A3.85,3.85,0,0,1,38.94,33.35Z" fill="#8f939a"/></g></svg>