<svg xmlns="http://www.w3.org/2000/svg" viewBox="0 0 941.16 135.08"><g id="Layer_1" data-name="Layer 1"><path d="M92.92,2.23V34.94H41.26V53.15H78.42v31H41.26V133.8H0V2.23Z" fill="#222524"/><path d="M213.43,77.77a32,32,0,0,1,6.6,20q0,17.28-11.43,26.67t-32.8,9.38h-69V2.23h67.09Q194,2.23,205.53,11t11.53,25.46q0,11.53-6,19.42a28.65,28.65,0,0,1-16.08,10.5Q206.84,69.13,213.43,77.77ZM148.11,53.52h16c3.72,0,6.47-.74,8.27-2.23s2.7-3.78,2.7-6.88-.9-5.6-2.7-7.15-4.55-2.32-8.27-2.32h-16Zm27,45.07q2.68-2.15,2.69-7,0-9.48-11-9.48H148.11v18.58h18.77C170.6,100.72,173.35,100,175.15,98.59Z" fill="#222524"/><path d="M238.15,33.08a57,57,0,0,1,22.58-23.7Q275.4.94,295.29.93q17.1,0,30.57,6.41a56.45,56.45,0,0,1,21.93,18.12A65.61,65.61,0,0,1,359,52.78H315.55a23.64,23.64,0,0,0-8.46-10.13A22.19,22.19,0,0,0,294.55,39q-10.41,0-16.45,7.81t-6,21q0,13.2,6,21t16.45,7.8A22.19,22.19,0,0,0,307.09,93a23.64,23.64,0,0,0,8.46-10.13H359a65.67,65.67,0,0,1-11.24,27.32,56.45,56.45,0,0,1-21.93,18.12q-13.47,6.41-30.57,6.41-19.89,0-34.56-8.45a57,57,0,0,1-22.58-23.7q-7.91-15.24-7.9-34.75T238.15,33.08Z" fill="#222524"/><path d="M415.15,102.58h39.77V133.8h-81V2.23h41.25Z" fill="#222524"/><path d="M497.94,126.37a65.4,65.4,0,0,1-24.62-24.16,67.07,67.07,0,0,1-9.11-34.75,67,67,0,0,1,9.11-34.75A64.66,64.66,0,0,1,497.94,8.64a71.43,71.43,0,0,1,68.11,0,64.19,64.19,0,0,1,24.44,24.07,67.55,67.55,0,0,1,9,34.75,67.58,67.58,0,0,1-9,34.75A64.73,64.73,0,0,1,566,126.37a70.61,70.61,0,0,1-68,0ZM551,88.74q6.69-7.9,6.69-21.28Q557.69,53.9,551,46T532,38.1q-12.45,0-19.14,7.89t-6.69,21.47q0,13.38,6.69,21.28T532,96.63Q544.31,96.63,551,88.74Z" fill="#222524"/><path d="M740.55,133.8H699.29L655.62,67.64V133.8H614.37V2.23h41.25L699.29,69.5V2.23h41.26Z" fill="#222524"/><path d="M800.39,35.12V51.29h40.88v31H800.39v18.59h46.45V133.8H759.13V2.23h87.71V35.12Z" fill="#222524"/><rect x="868.75" y="117.26" width="72.41" height="17.24" fill="#222524"/><rect x="868.75" y="86.31" width="51.39" height="19" fill="#222524"/></g></svg>