<svg id="Layer_1" data-name="Layer 1" xmlns="http://www.w3.org/2000/svg" viewBox="0 0 50 50"><path d="M14.49,7.44A2.94,2.94,0,0,0,12.57,8a27.26,27.26,0,0,0-2.88,2.42,14.11,14.11,0,0,0-1.5,1.64,2.76,2.76,0,0,0-.75,1.78,13.43,13.43,0,0,0,1.48,5.56c1.39,3,4.09,7,9.37,12.3s9.34,8,12.3,9.38a13.79,13.79,0,0,0,5.56,1.48,2.72,2.72,0,0,0,1.78-.76,14,14,0,0,0,1.64-1.5A29.46,29.46,0,0,0,42,37.44,2.41,2.41,0,0,0,41.73,34c-.61-.43-6.29-4.21-7.14-4.74a2.74,2.74,0,0,0-2.76.18c-.7.37-2.6,1.46-3.14,1.77A32.93,32.93,0,0,1,23.4,26.6a33.38,33.38,0,0,1-4.63-5.29c.32-.54,1.4-2.43,1.78-3.14a2.74,2.74,0,0,0,.17-2.77l-2.37-3.62c-1.08-1.62-2.1-3.16-2.36-3.53h0A2,2,0,0,0,14.49,7.44Zm-.14,1.63a.86.86,0,0,1,.34.12c.13.18,1.25,1.85,2.32,3.47s2.17,3.29,2.36,3.59a1.8,1.8,0,0,1-.24,1.17h0c-.35.67-2,3.55-2,3.55l-.23.4.23.4a36.43,36.43,0,0,0,5.13,6,35.89,35.89,0,0,0,6,5.12l.4.24.4-.23s2.87-1.64,3.55-2a1.77,1.77,0,0,1,1.18-.23c.55.33,6.68,4.41,7.06,4.67a1.08,1.08,0,0,1-.14,1.21h0a27,27,0,0,1-2.25,2.68A14.07,14.07,0,0,1,37,40.54a5.44,5.44,0,0,1-.77.43,11.33,11.33,0,0,1-4.93-1.33c-2.75-1.29-6.68-3.88-11.86-9.06s-7.76-9.1-9-11.86A11.49,11.49,0,0,1,9,13.8,5.72,5.72,0,0,1,9.47,13a12.07,12.07,0,0,1,1.33-1.46,27,27,0,0,1,2.68-2.25h0A1.27,1.27,0,0,1,14.35,9.07Z" fill="#8f939a"/></svg>