<svg id="Layer_1" data-name="Layer 1" xmlns="http://www.w3.org/2000/svg" viewBox="0 0 50 50"><g id="surface1"><path d="M43.94,42.75a2.17,2.17,0,0,0,2.17-2.17V15.88A1.92,1.92,0,0,0,44.19,14H40.35V10.12a2.88,2.88,0,0,0-2.88-2.87H29.79A2.85,2.85,0,0,0,27.88,8,2.9,2.9,0,0,0,26,7.25H18.28A2.86,2.86,0,0,0,16.36,8a2.88,2.88,0,0,0-1.92-.75H6.77a2.88,2.88,0,0,0-2.88,2.88v5.75h0V40.83a1.93,1.93,0,0,0,1.92,1.92H43.94Zm-14.1-1.92h-24V14h0V10.12a1,1,0,0,1,1-1h7.67a1,1,0,0,1,1,1v5.76H44.19V40.83ZM18.28,9.16H26a1,1,0,0,1,1,1V14h-9.6V10.12A.94.94,0,0,1,18.28,9.16Zm11.51,0h7.68a.94.94,0,0,1,1,1V14h-9.6V10.12A1,1,0,0,1,29.79,9.16Z" fill="#8f939a"/></g></svg>