<svg xmlns="http://www.w3.org/2000/svg" viewBox="0 0 41.41 44.86"><title>shop</title><g id="Layer_2" data-name="Layer 2"><g id="Layer_1-2" data-name="Layer 1"><path id="shop" d="M20.71,0A10.39,10.39,0,0,0,10.35,10.35H3.45A1.73,1.73,0,0,0,1.73,12L0,43a1.77,1.77,0,0,0,.47,1.28,1.73,1.73,0,0,0,1.26.54h38a1.69,1.69,0,0,0,1.25-.54A1.73,1.73,0,0,0,41.41,43L39.69,12A1.74,1.74,0,0,0,38,10.35h-6.9A10.38,10.38,0,0,0,20.71,0Zm0,3.45a6.91,6.91,0,0,1,6.9,6.9H13.81A6.91,6.91,0,0,1,20.71,3.45ZM5.08,13.8h5.27v6.9h3.46V13.8h13.8v6.9h3.45V13.8h5.27l1.52,27.61H3.56Z" fill="#c2cced"/></g></g></svg>