<svg id="Layer_1" data-name="Layer 1" xmlns="http://www.w3.org/2000/svg" viewBox="0 0 50 50"><g id="surface1"><path d="M25,4.16A20.84,20.84,0,1,0,45.84,25,20.85,20.85,0,0,0,25,4.16Zm-.91,1.92v8H17.61a22.67,22.67,0,0,1,1.15-2.8C20.25,8.33,22.14,6.51,24.09,6.08Zm1.82,0c1.95.43,3.84,2.25,5.32,5.23a21.22,21.22,0,0,1,1.16,2.8H25.91Zm-6.18.64a15.73,15.73,0,0,0-2.59,3.78,25.85,25.85,0,0,0-1.43,3.61H9.41A19,19,0,0,1,19.73,6.72Zm10.54,0a19,19,0,0,1,10.32,7.39h-6.3a25.85,25.85,0,0,0-1.43-3.61A15.73,15.73,0,0,0,30.27,6.72ZM8.26,16h6.93a37.48,37.48,0,0,0-1,8.13H6A18.81,18.81,0,0,1,8.26,16Zm8.8,0h7v8.13H16A35.67,35.67,0,0,1,17.06,16Zm8.85,0h7A35.67,35.67,0,0,1,34,24.09H25.91Zm8.9,0h6.93A19,19,0,0,1,44,24.09H35.84A37.48,37.48,0,0,0,34.81,16ZM6,25.91h8.14a37.47,37.47,0,0,0,1,8.13H8.26A18.94,18.94,0,0,1,6,25.91Zm10,0h8.12V34h-7A35.12,35.12,0,0,1,16,25.91Zm9.94,0H34A35.12,35.12,0,0,1,32.94,34h-7Zm9.94,0H44A18.79,18.79,0,0,1,41.74,34H34.81A37.47,37.47,0,0,0,35.85,25.91Zm-26.44,10h6.3a25.85,25.85,0,0,0,1.43,3.61,15.73,15.73,0,0,0,2.59,3.78A19.06,19.06,0,0,1,9.41,35.89Zm8.2,0h6.48v8c-1.95-.43-3.84-2.25-5.33-5.23A22.67,22.67,0,0,1,17.61,35.89Zm8.3,0h6.48a21.22,21.22,0,0,1-1.16,2.8c-1.48,3-3.37,4.8-5.32,5.23Zm8.38,0h6.3a19.06,19.06,0,0,1-10.32,7.39,15.73,15.73,0,0,0,2.59-3.78A25.85,25.85,0,0,0,34.29,35.89Z" fill="#8f939a"/></g></svg>