<svg xmlns="http://www.w3.org/2000/svg" viewBox="0 0 44.05 44.25"><title>whatsapp</title><g id="Layer_2" data-name="Layer 2"><g id="Layer_1-2" data-name="Layer 1"><path id="whatsapp" d="M37.63,6.43A21.94,21.94,0,0,0,3.11,32.89L0,44.25l11.63-3a22,22,0,0,0,10.48,2.67h0A21.93,21.93,0,0,0,37.63,6.43ZM22.12,40.16h0a18.3,18.3,0,0,1-9.28-2.53l-.66-.4L5.26,39,7.1,32.31l-.43-.69a18.23,18.23,0,1,1,15.45,8.54Zm10-13.65c-.54-.27-3.24-1.6-3.74-1.78s-.87-.27-1.23.28-1.42,1.78-1.74,2.15-.64.41-1.18.13a14.73,14.73,0,0,1-4.41-2.72,16.65,16.65,0,0,1-3-3.79c-.32-.55,0-.85.24-1.12s.55-.64.82-1a3.92,3.92,0,0,0,.56-.91,1.06,1.06,0,0,0-.05-1c-.14-.28-1.24-3-1.7-4.08s-.89-.91-1.23-.93-.68,0-1.05,0a2,2,0,0,0-1.46.69A6.13,6.13,0,0,0,11,17.06c0,2.69,2,5.3,2.23,5.67s3.87,5.89,9.37,8.26a28.91,28.91,0,0,0,3.12,1.16,7.62,7.62,0,0,0,3.45.22c1.05-.16,3.24-1.33,3.7-2.61a4.7,4.7,0,0,0,.32-2.6C33,26.93,32.66,26.79,32.11,26.51Z" fill="#c2cced" fill-rule="evenodd"/></g></g></svg>