<?xml version="1.0" encoding="UTF-8"?>
<svg xmlns="http://www.w3.org/2000/svg" xmlns:xlink="http://www.w3.org/1999/xlink" viewBox="0 0 64 64" version="1.1">
<g id="surface1">
<path style=" stroke:none;fill-rule:nonzero;fill:#72CAAF;fill-opacity:1;" d="M 47 53.769531 L 47 59 C 47 60.101563 46.101563 61 45 61 L 19 61 C 17.898438 61 17 60.101563 17 59 L 17 53.769531 C 17 52.761719 17.75 51.910156 18.75 51.78125 L 25 51 L 25 31 L 18.75 30.21875 C 17.75 30.089844 17 29.238281 17 28.230469 L 17 23 C 17 21.898438 17.898438 21 19 21 L 37 21 C 38.101563 21 39 21.898438 39 23 L 39 51 L 45.25 51.78125 C 46.25 51.910156 47 52.761719 47 53.769531 Z "/>
<path style=" stroke:none;fill-rule:nonzero;fill:#5DBC9D;fill-opacity:1;" d="M 38 10 C 38 13.867188 34.867188 17 31 17 C 27.132813 17 24 13.867188 24 10 C 24 6.132813 27.132813 3 31 3 C 34.867188 3 38 6.132813 38 10 Z "/>
<path style=" stroke:none;fill-rule:nonzero;fill:#5DBC9D;fill-opacity:1;" d="M 47 59 C 47 60.101563 46.101563 61 45 61 L 19 61 C 17.898438 61 17 60.101563 17 59 C 17 57.339844 18.339844 56 20 56 L 44 56 C 45.660156 56 47 57.339844 47 59 Z "/>
<path style=" stroke:none;fill-rule:nonzero;fill:#72CAAF;fill-opacity:1;" d="M 38 10 L 24 10 C 24 6.128906 27.128906 3 31 3 C 34.871094 3 38 6.128906 38 10 Z "/>
<path style=" stroke:none;fill-rule:nonzero;fill:#8D6C9F;fill-opacity:1;" d="M 45.371094 50.789063 L 40 50.117188 L 40 23 C 40 21.347656 38.652344 20 37 20 L 19 20 C 17.347656 20 16 21.347656 16 23 L 16 28.234375 C 16 29.742188 17.128906 31.023438 18.628906 31.210938 L 24 31.882813 L 24 50.117188 L 18.628906 50.789063 C 17.128906 50.976563 16 52.257813 16 53.765625 L 16 59 C 16 60.652344 17.347656 62 19 62 L 45 62 C 46.652344 62 48 60.652344 48 59 L 48 53.765625 C 48 52.257813 46.871094 50.976563 45.371094 50.789063 Z M 46 59 C 46 59.550781 45.550781 60 45 60 L 19 60 C 18.449219 60 18 59.550781 18 59 L 18 53.765625 C 18 53.261719 18.375 52.835938 18.875 52.773438 L 25.125 51.992188 C 25.625 51.929688 26 51.503906 26 51 L 26 31 C 26 30.496094 25.625 30.070313 25.125 30.007813 L 18.875 29.226563 C 18.375 29.164063 18 28.738281 18 28.234375 L 18 23 C 18 22.449219 18.449219 22 19 22 L 37 22 C 37.550781 22 38 22.449219 38 23 L 38 51 C 38 51.503906 38.375 51.929688 38.875 51.992188 L 45.125 52.773438 C 45.625 52.835938 46 53.261719 46 53.765625 Z "/>
<path style=" stroke:none;fill-rule:nonzero;fill:#8D6C9F;fill-opacity:1;" d="M 27 54 C 26.449219 54 26 54.449219 26 55 L 26 57 C 26 57.550781 26.449219 58 27 58 C 27.550781 58 28 57.550781 28 57 L 28 55 C 28 54.449219 27.550781 54 27 54 Z "/>
<path style=" stroke:none;fill-rule:nonzero;fill:#8D6C9F;fill-opacity:1;" d="M 32 54 C 31.449219 54 31 54.449219 31 55 L 31 57 C 31 57.550781 31.449219 58 32 58 C 32.550781 58 33 57.550781 33 57 L 33 55 C 33 54.449219 32.550781 54 32 54 Z "/>
<path style=" stroke:none;fill-rule:nonzero;fill:#8D6C9F;fill-opacity:1;" d="M 37 54 C 36.449219 54 36 54.449219 36 55 L 36 57 C 36 57.550781 36.449219 58 37 58 C 37.550781 58 38 57.550781 38 57 L 38 55 C 38 54.449219 37.550781 54 37 54 Z "/>
<path style=" stroke:none;fill-rule:nonzero;fill:#8D6C9F;fill-opacity:1;" d="M 42 54 C 41.449219 54 41 54.449219 41 55 L 41 57 C 41 57.550781 41.449219 58 42 58 C 42.550781 58 43 57.550781 43 57 L 43 55 C 43 54.449219 42.550781 54 42 54 Z "/>
<path style=" stroke:none;fill-rule:nonzero;fill:#8D6C9F;fill-opacity:1;" d="M 22 54 C 21.449219 54 21 54.449219 21 55 L 21 57 C 21 57.550781 21.449219 58 22 58 C 22.550781 58 23 57.550781 23 57 L 23 55 C 23 54.449219 22.550781 54 22 54 Z "/>
<path style=" stroke:none;fill-rule:nonzero;fill:#8D6C9F;fill-opacity:1;" d="M 31 18 C 35.410156 18 39 14.410156 39 10 C 39 5.589844 35.410156 2 31 2 C 26.589844 2 23 5.589844 23 10 C 23 14.410156 26.589844 18 31 18 Z M 31 4 C 34.308594 4 37 6.691406 37 10 C 37 13.308594 34.308594 16 31 16 C 27.691406 16 25 13.308594 25 10 C 25 6.691406 27.691406 4 31 4 Z "/>
</g>
</svg>
