<svg id="Layer_1" data-name="Layer 1" xmlns="http://www.w3.org/2000/svg" viewBox="0 0 72.18 72.18">
    <path
        d="M14.94,68.26,13,68.43A8.16,8.16,0,0,1,4.16,61L0,13.82A8.13,8.13,0,0,1,2.41,7.33,8.54,8.54,0,0,1,7.74,5l7.76-.68a1.51,1.51,0,0,1,1.53,2,12.37,12.37,0,0,0-.76,3.34L12.08,57.51A12.67,12.67,0,0,0,15,66.81s1.38,1.09-.08,1.46m25.64-49.1a5.27,5.27,0,0,1-10.46,1.24c0-.11,0-.22,0-.33a5.26,5.26,0,0,1,10.48-.91m17.59,9a2.4,2.4,0,0,0-3.38-.29h0L43.55,37.55a1.63,1.63,0,0,0-.19,2.3l2.52,3a2.25,2.25,0,0,1-3.38,3,.27.27,0,0,1-.07-.08l-7.53-9a2.37,2.37,0,0,0-3.29-.36l-10.56,8-1.5,12.78c-.18,2,1,6.59,3,6.77l35.83,3.5c1,.08,3-.11,3.76-.75s2.68-2.53,2.76-3.5l2.5-24.31-9.24-10.7Z"
        fill="#58c472" fill-rule="evenodd" />
    <path
        d="M59,69.88l-34.89-3a8.34,8.34,0,0,1-7.56-9l4.17-47.7a8.33,8.33,0,0,1,9-7.55L64.59,5.62a8.34,8.34,0,0,1,7.56,9L68,62.33a8.33,8.33,0,0,1-9,7.55Zm.39-4.49h.25a3.81,3.81,0,0,0,3.87-3.47l4.18-47.7a3.82,3.82,0,0,0-3.46-4.12l-34.89-3a3.82,3.82,0,0,0-4.12,3.46L21,58.21a3.81,3.81,0,0,0,3.45,4.12Z"
        fill="#58c472" />
</svg>