<svg id="Layer_1" data-name="Layer 1" xmlns="http://www.w3.org/2000/svg" viewBox="0 0 182 182">
    <path
        d="M105.21,99.35H79.62v25.59a8.53,8.53,0,1,1-17.06,0V99.35H37a8.53,8.53,0,0,1,0-17.06h25.6V56.69a8.53,8.53,0,0,1,17.06,0v25.6h25.59a8.53,8.53,0,1,1,0,17.06h0M177.79,48.9a7.07,7.07,0,0,0-7.28.53L142.18,68V52.16A21.07,21.07,0,0,0,121.12,31.1l-100.06,0A21.09,21.09,0,0,0,0,52.19v77.27a21.08,21.08,0,0,0,21.07,21.07l13,0h87a21.09,21.09,0,0,0,21.06-21.06V113.61l27.95,18.32a7.31,7.31,0,0,0,7.66.81A7.54,7.54,0,0,0,182,125.9V55.75a7.55,7.55,0,0,0-4.21-6.85"
        fill="#925cf3" fill-rule="evenodd" />
</svg>