<?xml version="1.0" encoding="utf-8"?><!-- Generator: Adobe Illustrator 26.0.2, SVG Export Plug-In . SVG Version: 6.00 Build 0)  -->
<svg version="1.1" id="Layer_1" xmlns="http://www.w3.org/2000/svg"
    xmlns:xlink="http://www.w3.org/1999/xlink" x="0px" y="0px" viewBox="0 0 14.5 14.1"
    style="enable-background:new 0 0 14.5 14.1;" xml:space="preserve">
<g>
	<path d="M4,14.1c-0.1,0-0.3,0-0.4-0.1c-0.3-0.1-0.5-0.5-0.5-0.8v-2.1c-1.7-0.3-3-1.9-3-3.7V3.7c0-2,1.7-3.7,3.7-3.7h6.8
		c2,0,3.7,1.7,3.7,3.7v3.7c0,2-1.7,3.7-3.7,3.7H7.9c-0.1,0-0.2,0-0.3,0.1l-3,2.6C4.4,14,4.2,14.1,4,14.1L4,14.1z M3.8,1
		C2.3,1,1.1,2.2,1.1,3.7v3.7c0,1.4,1,2.5,2.4,2.7c0.3,0,0.6,0.3,0.6,0.7v2.1l2.8-2.4c0.3-0.2,0.6-0.4,1-0.4h2.8
		c1.5,0,2.7-1.2,2.7-2.7V3.7c0-1.5-1.2-2.7-2.7-2.7L3.8,1z" />
</g>
</svg>
