<svg xmlns="http://www.w3.org/2000/svg" viewBox="0 0 189.97 198.69"><g id="Layer_2" data-name="Layer 2"><g id="Layer_1-2" data-name="Layer 1"><g id="download"><path d="M94.85.5A8.63,8.63,0,0,0,86.4,9.22v85.9H60.63A8.61,8.61,0,0,0,52,103.71,8.7,8.7,0,0,0,54.75,110L88.13,143.4A8.69,8.69,0,0,0,95,146.75a8.6,8.6,0,0,0,6.86-3.38L135.21,110a8.59,8.59,0,0,0-5.87-14.86H103.57V9.22A8.61,8.61,0,0,0,94.85.5ZM9,86.4A8.6,8.6,0,0,0,.5,95.12V181a17.31,17.31,0,0,0,17.19,17.19H172.28A17.31,17.31,0,0,0,189.47,181V95.12a8.6,8.6,0,1,0-17.19,0V181H17.69V95.12A8.61,8.61,0,0,0,9,86.4Z" fill="#fff"/></g><g id="download-2" data-name="download"><path d="M94.85.5A8.63,8.63,0,0,0,86.4,9.22v85.9H60.63A8.61,8.61,0,0,0,52,103.71,8.7,8.7,0,0,0,54.75,110L88.13,143.4A8.69,8.69,0,0,0,95,146.75a8.6,8.6,0,0,0,6.86-3.38L135.21,110a8.59,8.59,0,0,0-5.87-14.86H103.57V9.22A8.61,8.61,0,0,0,94.85.5ZM9,86.4A8.6,8.6,0,0,0,.5,95.12V181a17.31,17.31,0,0,0,17.19,17.19H172.28A17.31,17.31,0,0,0,189.47,181V95.12a8.6,8.6,0,1,0-17.19,0V181H17.69V95.12A8.61,8.61,0,0,0,9,86.4Z" fill="#fff"/></g><g id="download-3" data-name="download"><path d="M94.85.5A8.63,8.63,0,0,0,86.4,9.22v85.9H60.63A8.61,8.61,0,0,0,52,103.71,8.7,8.7,0,0,0,54.75,110L88.13,143.4A8.69,8.69,0,0,0,95,146.75a8.6,8.6,0,0,0,6.86-3.38L135.21,110a8.59,8.59,0,0,0-5.87-14.86H103.57V9.22A8.61,8.61,0,0,0,94.85.5ZM9,86.4A8.6,8.6,0,0,0,.5,95.12V181a17.31,17.31,0,0,0,17.19,17.19H172.28A17.31,17.31,0,0,0,189.47,181V95.12a8.6,8.6,0,1,0-17.19,0V181H17.69V95.12A8.61,8.61,0,0,0,9,86.4Z" fill="none" stroke="#000" stroke-miterlimit="10"/></g></g></g></svg>