<?xml version="1.0" encoding="UTF-8"?>
<svg xmlns="http://www.w3.org/2000/svg" xmlns:xlink="http://www.w3.org/1999/xlink" viewBox="0 0 26 26" version="1.1">
<g id="surface1">
<path style=" stroke:none;fill-rule:nonzero;fill:#C2CCED;fill-opacity:1;" d="M 19.789063 0.246094 C 19.203125 0.242188 18.632813 0.449219 18.1875 0.890625 L 17.203125 1.90625 L 23.699219 8.433594 L 24.683594 7.417969 C 25.570313 6.527344 25.578125 5.085938 24.683594 4.1875 L 21.421875 0.921875 C 20.96875 0.472656 20.375 0.25 19.789063 0.246094 Z M 16.097656 2.800781 L 14.558594 4.277344 L 21.328125 11.046875 L 22.898438 9.601563 Z M 13.574219 5.355469 L 2.921875 15.910156 C 2.675781 16.039063 2.5 16.261719 2.429688 16.527344 L 0.152344 24.25 C 0.0507813 24.589844 0.140625 24.964844 0.390625 25.214844 C 0.640625 25.464844 1.015625 25.554688 1.355469 25.453125 L 9.078125 23.175781 C 9.4375 23.121094 9.734375 22.871094 9.847656 22.527344 L 20.34375 12.125 L 18.898438 10.679688 L 8.125 21.480469 L 3.785156 22.742188 L 2.863281 21.820313 L 4.1875 17.296875 L 14.863281 6.648438 Z M 15.910156 7.726563 L 5.109375 18.558594 L 6.679688 18.898438 L 6.894531 20.34375 L 17.726563 9.539063 Z "/>
</g>
</svg>
