<svg xmlns="http://www.w3.org/2000/svg" viewBox="0 0 43.25 38.08"><title>followed</title><g id="Layer_2" data-name="Layer 2"><g id="Layer_1-2" data-name="Layer 1"><path id="followed" d="M40.56,9.75A8.51,8.51,0,0,0,37,5.29,8.52,8.52,0,0,0,29.13,0h-15A8.52,8.52,0,0,0,6.26,5.29,8.53,8.53,0,0,0,2.69,9.75,7.5,7.5,0,0,0,0,15.5V30.57a7.5,7.5,0,0,0,7.5,7.51H35.75a7.5,7.5,0,0,0,7.5-7.51V15.5A7.5,7.5,0,0,0,40.56,9.75ZM14.13,2h15a6.45,6.45,0,0,1,4.79,2.12A8,8,0,0,0,32.53,4H10.73a8,8,0,0,0-1.39.12A6.45,6.45,0,0,1,14.13,2ZM30.56,20.54l-9.2,9.2a2.36,2.36,0,0,1-1.72.7,2.33,2.33,0,0,1-1.71-.7L13.8,25.62a2.38,2.38,0,0,1,3.37-3.37l2.47,2.47,7.55-7.55a2.38,2.38,0,0,1,3.37,3.37ZM35.75,8H7.5a7.16,7.16,0,0,0-1.61.18A6.49,6.49,0,0,1,10.73,6h21.8a6.44,6.44,0,0,1,4.83,2.18A7.16,7.16,0,0,0,35.75,8Z" fill="#c2cced"/></g></g></svg>