<svg id="reactions" xmlns="http://www.w3.org/2000/svg" viewBox="0 0 16 16"><path d="M5.52,6a1.61,1.61,0,0,1,1.27.59l.07.08.53-.62,0-.06a2.23,2.23,0,0,0-1.85-.87A2.63,2.63,0,0,0,2.92,8a2.63,2.63,0,0,0,2.56,2.85,2.48,2.48,0,0,0,1.84-.78V7.88H6.5l0,1.77a1.66,1.66,0,0,1-1,.32A1.8,1.8,0,0,1,3.77,8,1.81,1.81,0,0,1,5.52,6Z" fill="#343434"/><rect x="7.99" y="5.22" width="0.85" height="5.57" fill="#343434"/><polygon points="13.08 6.07 13.08 5.22 9.63 5.22 9.63 10.79 10.47 10.79 10.47 8.61 12.79 8.61 12.79 7.76 10.47 7.76 10.47 6.07 13.08 6.07" fill="#343434"/><rect x="1.7" y="1.7" width="12.6" height="12.6" rx="3.8" fill="none" stroke="#343434" stroke-miterlimit="10" stroke-width="0.94"/></svg>