<?xml version="1.0" encoding="UTF-8"?>
<svg xmlns="http://www.w3.org/2000/svg" xmlns:xlink="http://www.w3.org/1999/xlink" viewBox="0 0 16 16" version="1.1">
<g id="surface1">
<path style=" stroke:none;fill-rule:nonzero;fill:#5C5D61;fill-opacity:1;" d="M 8 2 C 4.691406 2 2 4.691406 2 8 C 2 11.308594 4.691406 14 8 14 C 11.308594 14 14 11.308594 14 8 C 14 4.691406 11.308594 2 8 2 Z M 8 3 C 8.984375 3 9.898438 3.292969 10.671875 3.78125 L 10.265625 3.828125 L 10.359375 4.828125 L 9.828125 4.59375 L 9.390625 4.96875 L 9.46875 6 L 10.546875 5.65625 L 11.890625 6.09375 L 11.546875 6.71875 L 10.734375 6.21875 L 9.859375 6.34375 L 9 6.984375 L 8.515625 8.484375 L 9.484375 9.28125 C 9.484375 9.28125 10.476563 9.109375 10.53125 9.109375 C 10.585938 9.109375 10.953125 10.015625 10.953125 10.015625 L 10.15625 12.515625 C 9.507813 12.828125 8.773438 13 8 13 C 7.84375 13 7.6875 12.984375 7.53125 12.96875 L 6.984375 12.015625 L 7.515625 10.015625 L 5.5 8.5 L 3.640625 8.5 L 3.15625 7.515625 L 4.5 6.453125 L 6.5 5.5 L 6.203125 4.171875 L 7.0625 3.984375 L 7.46875 4.546875 L 8.96875 4.265625 L 8.703125 3.109375 L 7.59375 3.03125 C 7.726563 3.023438 7.863281 3 8 3 Z M 7.4375 3.03125 L 6.65625 3.359375 L 6.28125 3.296875 C 6.648438 3.164063 7.03125 3.078125 7.4375 3.03125 Z M 3.03125 8.390625 L 3.515625 8.953125 L 3.515625 9.984375 L 4.453125 11.015625 L 5.03125 11.015625 L 6.453125 12.765625 C 4.566406 12.15625 3.1875 10.445313 3.03125 8.390625 Z "/>
</g>
</svg>
