<svg id="Layer_1" data-name="Layer 1" xmlns="http://www.w3.org/2000/svg" viewBox="0 0 120 120"><path d="M96.36,83.08H94a1.73,1.73,0,0,1-1.7-2,14.59,14.59,0,0,0,.1-1.64V77.19A26,26,0,0,0,88,62.73,1.74,1.74,0,0,1,89.4,60h.7c8.09,0,13.75,6.89,13.75,15.36A7.61,7.61,0,0,1,96.36,83.08ZM77.31,45c0-6.3,3.62-10.38,9.23-10.38S95.77,38.7,95.77,45c0,5.73-4.14,10.38-9.23,10.38S77.31,50.73,77.31,45Zm8.07,34.48A8.32,8.32,0,0,1,77,87.69H43a8.32,8.32,0,0,1-8.41-8.21V77.19a19.76,19.76,0,0,1,20-19.5H65.41a19.76,19.76,0,0,1,20,19.5ZM24.23,45c0-6.3,3.62-10.38,9.23-10.38S42.69,38.7,42.69,45c0,5.73-4.14,10.38-9.23,10.38S24.23,50.73,24.23,45ZM32,62.73a26,26,0,0,0-4.39,14.46v2.29a14.59,14.59,0,0,0,.1,1.64,1.73,1.73,0,0,1-1.69,2H23.64a7.61,7.61,0,0,1-7.49-7.72C16.15,66.89,21.82,60,29.9,60h.7A1.73,1.73,0,0,1,32,62.73ZM60,23.08c7.83,0,12.69,5.3,12.69,13.84C72.69,44.56,67,50.77,60,50.77S47.31,44.56,47.31,36.92C47.31,28.38,52.17,23.08,60,23.08ZM60,0a60,60,0,1,0,60,60A60.07,60.07,0,0,0,60,0Z" fill="#1878f3"/></svg>