<svg xmlns="http://www.w3.org/2000/svg" viewBox="0 0 169.31 145.75"><title>group</title><g id="Layer_2" data-name="Layer 2"><g id="Layer_1-2" data-name="Layer 1"><g id="group"><path d="M20.4,124.47v-9.84c0-7.49,7.22-14.69,13.28-19.41A92.49,92.49,0,0,1,62.15,80.56l.27-.08.15,0A1.55,1.55,0,0,0,63,79.32v-5A51.81,51.81,0,0,1,51.94,57.86a58.1,58.1,0,0,1-4.9-23c0-11,3.49-20.44,10.11-27.29A33.41,33.41,0,0,0,50.92,7C43,7,35.83,9.65,30.73,14.49c-5.53,5.24-8.45,12.73-8.45,21.64a46,46,0,0,0,3.86,18.12,39.88,39.88,0,0,0,9.51,13.68v5.39A3.71,3.71,0,0,1,33.13,77L33,77l-.09,0A74.26,74.26,0,0,0,10,88.85c-3.74,2.91-10,8.61-10,14v8.23c0,2.74,1.54,5.3,4.58,7.63a37.58,37.58,0,0,0,11,5.36c1.53.5,3.15,1,4.82,1.38C20.42,125.13,20.4,124.8,20.4,124.47Z" fill="#c2cced"/><path d="M159.47,89a71.46,71.46,0,0,0-23.12-12l-.08,0-.09,0c-1.2-.25-2.52-2.17-2.52-3.68V67.93a39.88,39.88,0,0,0,9.51-13.68A46,46,0,0,0,147,36.13c0-8.91-2.92-16.4-8.44-21.64C133.48,9.65,126.31,7,118.39,7a33.6,33.6,0,0,0-6.24.58c6.62,6.85,10.11,16.25,10.11,27.29a58.26,58.26,0,0,1-4.89,23,52,52,0,0,1-11.09,16.47v5a2.43,2.43,0,0,0,.63,1.16l.21.07a89,89,0,0,1,28.76,14.92c8.4,6.69,13,13.5,13,19.16v9.84c0,.33,0,.66,0,1,1.68-.42,3.3-.88,4.83-1.38a37.7,37.7,0,0,0,11-5.36c3-2.33,4.58-4.89,4.58-7.63v-8.23C169.31,99.05,165.72,94,159.47,89Z" fill="#c2cced"/><path d="M84.66,145.75c-15.88,0-30.87-2.05-42.21-5.75a44.82,44.82,0,0,1-13.2-6.41c-3.64-2.79-5.48-5.85-5.48-9.12v-9.84c0-6.45,7.51-13.26,12-16.75a89.07,89.07,0,0,1,27.4-14.1l.11,0,.11,0a4.44,4.44,0,0,0,3-4.4V72.88A47.85,47.85,0,0,1,55,56.52a54.87,54.87,0,0,1-4.61-21.67c0-10.66,3.49-19.6,10.09-25.87,6.1-5.79,14.67-9,24.15-9s18,3.19,24.14,9c6.6,6.27,10.09,15.21,10.09,25.87a54.87,54.87,0,0,1-4.61,21.67,48,48,0,0,1-11.37,16.36v6.44c0,1.8,1.58,4.1,3,4.4l.1,0,.1,0a85.28,85.28,0,0,1,27.64,14.34c7.48,6,11.76,12,11.76,16.52v9.84c0,3.27-1.84,6.33-5.47,9.12a44.82,44.82,0,0,1-13.2,6.41C115.52,143.7,100.53,145.75,84.66,145.75Z" fill="#c2cced"/></g></g></g></svg>