<svg xmlns="http://www.w3.org/2000/svg" viewBox="0 0 58 58"><g id="Layer_2" data-name="Layer 2"><g id="reactions"><g id="surface1"><path d="M57,29A28,28,0,1,1,29,1,28,28,0,0,1,57,29Z" fill="#ed7899"/><path d="M41,28A12,12,0,1,1,29,16,12,12,0,0,1,41,28Z" fill="#f283a5"/><path d="M29,28a1,1,0,0,0,1-1V7a1,1,0,0,0-2,0V27A1,1,0,0,0,29,28Z" fill="#faefde"/><path d="M29,0A29,29,0,1,0,58,29,29,29,0,0,0,29,0Zm0,56A27,27,0,1,1,56,29,27,27,0,0,1,29,56Z" fill="#8d6c9f"/><path d="M19.81,39.19a1,1,0,0,0,.71-.29l1.41-1.41a1,1,0,0,0-1.41-1.41L19.1,37.49a1,1,0,0,0,.71,1.71Z" fill="#8d6c9f"/><path d="M36.78,22.22a1,1,0,0,0,.71-.29l1.41-1.41a1,1,0,0,0-1.41-1.41l-1.41,1.41a1,1,0,0,0-.22,1.09,1,1,0,0,0,.93.62Z" fill="#8d6c9f"/><path d="M36.07,37.49l1.41,1.41a1,1,0,0,0,1.41-1.41l-1.41-1.41a1,1,0,0,0-1.41,1.41Z" fill="#8d6c9f"/><path d="M21.93,20.51,20.51,19.1a1,1,0,0,0-1.41,1.41l1.41,1.41a1,1,0,0,0,1.41-1.41Z" fill="#8d6c9f"/><path d="M41.3,33.33a1,1,0,0,0,1-.24,1,1,0,0,0-.47-1.69l-1.93-.52a1,1,0,0,0-1,.24,1,1,0,0,0-.27,1,1,1,0,0,0,.74.7Z" fill="#8d6c9f"/><path d="M16.18,26.6l1.93.52a1,1,0,0,0,1-.24,1,1,0,0,0,.27-1,1,1,0,0,0-.74-.7l-1.93-.52a1,1,0,0,0-1,.24,1,1,0,0,0,.47,1.69Z" fill="#8d6c9f"/><path d="M42.52,25.38a1,1,0,0,0-1.22-.71l-1.93.52a1,1,0,0,0-.74.7,1,1,0,0,0,.27,1,1,1,0,0,0,1,.24l1.93-.52A1,1,0,0,0,42.52,25.38Z" fill="#8d6c9f"/><path d="M15.48,32.62a1,1,0,0,0,1.22.71l1.93-.52a1,1,0,0,0,.74-.7,1,1,0,0,0-.27-1,1,1,0,0,0-1-.24l-1.93.52A1,1,0,0,0,15.48,32.62Z" fill="#8d6c9f"/><path d="M42.88,14.6A1,1,0,0,0,41.49,16,18,18,0,1,1,22.3,12.29a1,1,0,1,0-.74-1.86A20,20,0,1,0,42.88,14.6Z" fill="#faefde"/><path d="M35.7,12.29a18.21,18.21,0,0,1,2.39,1.17,1,1,0,0,0,1-1.72,19.71,19.71,0,0,0-2.65-1.3,1,1,0,0,0-1.3.56,1,1,0,0,0,.56,1.3Z" fill="#faefde"/></g></g></g></svg>