<?xml version="1.0" encoding="UTF-8"?>
<svg xmlns="http://www.w3.org/2000/svg" xmlns:xlink="http://www.w3.org/1999/xlink" viewBox="0 0 64 64" version="1.1">
<g id="surface1">
<path style=" stroke:none;fill-rule:nonzero;fill:#C2CDE7;fill-opacity:1;" d="M 7 61 L 57 61 C 58.105469 61 59 60.105469 59 59 L 59 15 C 59 13.894531 58.105469 13 57 13 L 7 13 C 5.894531 13 5 13.894531 5 15 L 5 59 C 5 60.105469 5.894531 61 7 61 Z "/>
<path style=" stroke:none;fill-rule:nonzero;fill:#72CAAF;fill-opacity:1;" d="M 24 26.363281 L 33.453125 37 L 37 32.273438 L 24 25.183594 Z "/>
<path style=" stroke:none;fill-rule:nonzero;fill:#85CBF8;fill-opacity:1;" d="M 24 28 L 33 38 L 24 46 L 23 46 L 23 28 Z "/>
<path style=" stroke:none;fill-rule:nonzero;fill:#ED7899;fill-opacity:1;" d="M 24 48 L 37 32 L 36.894531 41.617188 Z "/>
<path style=" stroke:none;fill-rule:nonzero;fill:#F9E3AE;fill-opacity:1;" d="M 33 37 L 38 32 L 45.5 37 L 36.75 42 Z "/>
<path style=" stroke:none;fill-rule:nonzero;fill:#B5C4E0;fill-opacity:1;" d="M 57 61 L 7 61 C 5.894531 61 5 60.105469 5 59 C 5 57.34375 6.34375 56 8 56 L 56 56 C 57.65625 56 59 57.34375 59 59 C 59 60.105469 58.105469 61 57 61 Z "/>
<path style=" stroke:none;fill-rule:nonzero;fill:#F9E3AE;fill-opacity:1;" d="M 23 19 C 23 20.105469 22.105469 21 21 21 C 19.894531 21 19 20.105469 19 19 C 19 17.894531 19.894531 17 21 17 C 22.105469 17 23 17.894531 23 19 Z "/>
<path style=" stroke:none;fill-rule:nonzero;fill:#F9E3AE;fill-opacity:1;" d="M 45 19 C 45 20.105469 44.105469 21 43 21 C 41.894531 21 41 20.105469 41 19 C 41 17.894531 41.894531 17 43 17 C 44.105469 17 45 17.894531 45 19 Z "/>
<path style=" stroke:none;fill-rule:nonzero;fill:#8D6C9F;fill-opacity:1;" d="M 57 12 L 43.820313 12 C 42.863281 6.335938 37.933594 2 32 2 C 26.066406 2 21.136719 6.335938 20.179688 12 L 7 12 C 5.347656 12 4 13.347656 4 15 L 4 59 C 4 60.652344 5.347656 62 7 62 L 57 62 C 58.652344 62 60 60.652344 60 59 L 60 15 C 60 13.347656 58.652344 12 57 12 Z M 32 4 C 36.828125 4 40.867188 7.441406 41.796875 12 L 22.203125 12 C 23.132813 7.441406 27.171875 4 32 4 Z M 58 59 C 58 59.550781 57.550781 60 57 60 L 7 60 C 6.449219 60 6 59.550781 6 59 L 6 15 C 6 14.449219 6.449219 14 7 14 L 20 14 L 20 16.183594 C 18.839844 16.597656 18 17.699219 18 19 C 18 20.652344 19.347656 22 21 22 C 22.652344 22 24 20.652344 24 19 C 24 17.699219 23.160156 16.597656 22 16.183594 L 22 14 L 42 14 L 42 16.183594 C 40.839844 16.597656 40 17.699219 40 19 C 40 20.652344 41.347656 22 43 22 C 44.652344 22 46 20.652344 46 19 C 46 17.699219 45.160156 16.597656 44 16.183594 L 44 14 L 57 14 C 57.550781 14 58 14.449219 58 15 Z M 21 18 C 21.550781 18 22 18.449219 22 19 C 22 19.550781 21.550781 20 21 20 C 20.449219 20 20 19.550781 20 19 C 20 18.449219 20.449219 18 21 18 Z M 43 18 C 43.550781 18 44 18.449219 44 19 C 44 19.550781 43.550781 20 43 20 C 42.449219 20 42 19.550781 42 19 C 42 18.449219 42.449219 18 43 18 Z "/>
<path style=" stroke:none;fill-rule:nonzero;fill:#8D6C9F;fill-opacity:1;" d="M 9 54 C 8.445313 54 8 54.445313 8 55 L 8 57 C 8 57.554688 8.445313 58 9 58 C 9.554688 58 10 57.554688 10 57 L 10 55 C 10 54.445313 9.554688 54 9 54 Z "/>
<path style=" stroke:none;fill-rule:nonzero;fill:#8D6C9F;fill-opacity:1;" d="M 14 54 C 13.445313 54 13 54.445313 13 55 L 13 57 C 13 57.554688 13.445313 58 14 58 C 14.554688 58 15 57.554688 15 57 L 15 55 C 15 54.445313 14.554688 54 14 54 Z "/>
<path style=" stroke:none;fill-rule:nonzero;fill:#8D6C9F;fill-opacity:1;" d="M 19 54 C 18.445313 54 18 54.445313 18 55 L 18 57 C 18 57.554688 18.445313 58 19 58 C 19.554688 58 20 57.554688 20 57 L 20 55 C 20 54.445313 19.554688 54 19 54 Z "/>
<path style=" stroke:none;fill-rule:nonzero;fill:#8D6C9F;fill-opacity:1;" d="M 24 54 C 23.445313 54 23 54.445313 23 55 L 23 57 C 23 57.554688 23.445313 58 24 58 C 24.554688 58 25 57.554688 25 57 L 25 55 C 25 54.445313 24.554688 54 24 54 Z "/>
<path style=" stroke:none;fill-rule:nonzero;fill:#8D6C9F;fill-opacity:1;" d="M 29 54 C 28.445313 54 28 54.445313 28 55 L 28 57 C 28 57.554688 28.445313 58 29 58 C 29.554688 58 30 57.554688 30 57 L 30 55 C 30 54.445313 29.554688 54 29 54 Z "/>
<path style=" stroke:none;fill-rule:nonzero;fill:#8D6C9F;fill-opacity:1;" d="M 35 54 C 34.445313 54 34 54.445313 34 55 L 34 57 C 34 57.554688 34.445313 58 35 58 C 35.554688 58 36 57.554688 36 57 L 36 55 C 36 54.445313 35.554688 54 35 54 Z "/>
<path style=" stroke:none;fill-rule:nonzero;fill:#8D6C9F;fill-opacity:1;" d="M 40 54 C 39.445313 54 39 54.445313 39 55 L 39 57 C 39 57.554688 39.445313 58 40 58 C 40.554688 58 41 57.554688 41 57 L 41 55 C 41 54.445313 40.554688 54 40 54 Z "/>
<path style=" stroke:none;fill-rule:nonzero;fill:#8D6C9F;fill-opacity:1;" d="M 45 54 C 44.445313 54 44 54.445313 44 55 L 44 57 C 44 57.554688 44.445313 58 45 58 C 45.554688 58 46 57.554688 46 57 L 46 55 C 46 54.445313 45.554688 54 45 54 Z "/>
<path style=" stroke:none;fill-rule:nonzero;fill:#8D6C9F;fill-opacity:1;" d="M 50 54 C 49.445313 54 49 54.445313 49 55 L 49 57 C 49 57.554688 49.445313 58 50 58 C 50.554688 58 51 57.554688 51 57 L 51 55 C 51 54.445313 50.554688 54 50 54 Z "/>
<path style=" stroke:none;fill-rule:nonzero;fill:#8D6C9F;fill-opacity:1;" d="M 55 54 C 54.445313 54 54 54.445313 54 55 L 54 57 C 54 57.554688 54.445313 58 55 58 C 55.554688 58 56 57.554688 56 57 L 56 55 C 56 54.445313 55.554688 54 55 54 Z "/>
<path style=" stroke:none;fill-rule:nonzero;fill:#8D6C9F;fill-opacity:1;" d="M 45.21875 35.097656 L 25.152344 24.261719 C 24.476563 23.898438 23.675781 23.910156 23.015625 24.308594 C 22.355469 24.699219 21.960938 25.394531 21.960938 26.164063 L 21.960938 47.835938 C 21.960938 48.605469 22.355469 49.300781 23.015625 49.691406 C 23.359375 49.898438 23.742188 50 24.121094 50 C 24.472656 50 24.824219 49.914063 25.148438 49.738281 L 45.21875 38.902344 C 45.914063 38.523438 46.351563 37.796875 46.351563 37 C 46.351563 36.203125 45.917969 35.476563 45.21875 35.097656 Z M 31.050781 39.238281 C 30.632813 38.878906 30.003906 38.925781 29.640625 39.34375 L 23.960938 45.972656 L 23.960938 28.027344 L 35.726563 41.753906 L 25.453125 47.300781 L 31.160156 40.648438 C 31.519531 40.226563 31.472656 39.597656 31.050781 39.238281 Z M 25.453125 26.699219 L 35.726563 32.246094 L 32.96875 35.464844 Z M 44.269531 37.144531 L 37.527344 40.78125 L 34.285156 37 L 37.527344 33.21875 L 44.265625 36.855469 C 44.289063 36.867188 44.351563 36.902344 44.351563 37 C 44.351563 37.097656 44.289063 37.132813 44.269531 37.144531 Z "/>
</g>
</svg>
