<?xml version="1.0" encoding="UTF-8"?>
<svg xmlns="http://www.w3.org/2000/svg" xmlns:xlink="http://www.w3.org/1999/xlink" viewBox="0 0 64 64" version="1.1">
<g id="surface1">
<path style=" stroke:none;fill-rule:nonzero;fill:#72CAAF;fill-opacity:1;" d="M 54.289063 10.570313 L 50.789063 10.339844 C 45.078125 9.964844 39.621094 7.84375 35.160156 4.261719 L 33.808594 3.179688 C 32.753906 2.328125 31.246094 2.328125 30.191406 3.179688 L 28.839844 4.261719 C 24.375 7.84375 18.914063 9.96875 13.199219 10.339844 L 9.699219 10.570313 C 8.101563 10.683594 6.898438 12.0625 7 13.660156 L 7.671875 22.878906 C 8.402344 33.316406 13.265625 43.035156 21.179688 49.878906 L 30.089844 57.628906 C 31.183594 58.570313 32.796875 58.570313 33.890625 57.628906 L 42.800781 49.878906 C 50.714844 43.035156 55.574219 33.316406 56.308594 22.878906 L 57 13.648438 C 57.101563 12.050781 55.890625 10.671875 54.289063 10.570313 Z "/>
<path style=" stroke:none;fill-rule:nonzero;fill:#66BFA1;fill-opacity:1;" d="M 54.289063 10.570313 L 50.789063 10.339844 C 45.078125 9.964844 39.621094 7.84375 35.160156 4.261719 L 33.808594 3.179688 C 33.296875 2.765625 32.660156 2.539063 32 2.539063 L 32 58.371094 C 32.699219 58.371094 33.375 58.117188 33.898438 57.660156 L 42.808594 49.910156 C 50.722656 43.0625 55.585938 33.347656 56.320313 22.910156 L 57 13.648438 C 57.101563 12.050781 55.890625 10.671875 54.289063 10.570313 Z "/>
<path style=" stroke:none;fill-rule:nonzero;fill:#FAEFDE;fill-opacity:1;" d="M 30.339844 35.699219 C 28.46875 35.703125 26.785156 34.570313 26.078125 32.839844 L 24.808594 29.71875 C 24.339844 28.566406 23.359375 27.691406 22.160156 27.351563 C 21.863281 27.261719 21.539063 27.332031 21.304688 27.535156 C 21.070313 27.734375 20.949219 28.042969 20.988281 28.351563 L 21.511719 33.121094 C 21.675781 34.828125 22.183594 36.488281 23 38 C 24.488281 42.878906 26 43 29.910156 43 L 35.550781 43 C 37.738281 42.996094 39.671875 41.570313 40.320313 39.480469 C 40.773438 38.183594 41.003906 36.820313 41 35.449219 C 41 32 40.25 22.179688 40.25 22.179688 C 40.203125 21.304688 39.476563 20.617188 38.601563 20.621094 C 37.6875 20.621094 36.949219 21.359375 36.949219 22.269531 L 36.949219 27.890625 L 36.800781 27.890625 L 36.519531 19 C 36.492188 18.121094 35.769531 17.417969 34.890625 17.421875 C 34.007813 17.417969 33.285156 18.121094 33.261719 19 L 33.261719 27.859375 L 32.890625 16.910156 C 32.867188 16.140625 32.238281 15.53125 31.46875 15.53125 C 31.085938 15.515625 30.714844 15.660156 30.4375 15.925781 C 30.160156 16.191406 30.003906 16.554688 30 16.941406 L 29.628906 27.890625 L 29.628906 19 C 29.613281 18.113281 28.886719 17.398438 28 17.398438 C 27.566406 17.390625 27.144531 17.550781 26.832031 17.851563 C 26.519531 18.152344 26.335938 18.566406 26.328125 19 L 26 32.480469 "/>
<path style=" stroke:none;fill-rule:nonzero;fill:#8D6C9F;fill-opacity:1;" d="M 44.210938 11.660156 C 41.175781 10.773438 38.308594 9.394531 35.71875 7.578125 L 33.148438 5.78125 C 32.460938 5.300781 31.546875 5.300781 30.859375 5.78125 L 28.289063 7.578125 C 23.953125 10.617188 18.871094 12.40625 13.589844 12.761719 L 12.941406 12.761719 C 12.386719 12.78125 11.957031 13.242188 11.976563 13.796875 C 11.996094 14.347656 12.457031 14.78125 13.011719 14.761719 L 13.730469 14.761719 C 19.371094 14.378906 24.800781 12.464844 29.429688 9.21875 L 32 7.429688 L 34.570313 9.230469 C 37.339844 11.167969 40.40625 12.640625 43.648438 13.589844 C 44.179688 13.746094 44.734375 13.441406 44.890625 12.910156 C 45.042969 12.378906 44.738281 11.824219 44.210938 11.671875 Z "/>
<path style=" stroke:none;fill-rule:nonzero;fill:#8D6C9F;fill-opacity:1;" d="M 51 12.800781 L 50.410156 12.800781 C 49.648438 12.75 48.878906 12.671875 48.128906 12.558594 C 47.578125 12.480469 47.066406 12.863281 46.984375 13.414063 C 46.90625 13.96875 47.289063 14.480469 47.839844 14.558594 C 48.640625 14.679688 49.460938 14.769531 50.28125 14.820313 L 50.941406 14.820313 C 51.492188 14.839844 51.957031 14.40625 51.976563 13.855469 C 51.996094 13.300781 51.5625 12.839844 51.011719 12.820313 Z "/>
<path style=" stroke:none;fill-rule:nonzero;fill:#8D6C9F;fill-opacity:1;" d="M 55.078125 8.871094 L 51.460938 8.628906 C 45.546875 8.246094 39.894531 6.050781 35.269531 2.339844 L 33.871094 1.21875 C 32.773438 0.34375 31.214844 0.34375 30.121094 1.21875 L 28.71875 2.339844 C 24.101563 6.046875 18.453125 8.246094 12.539063 8.628906 L 8.921875 8.871094 C 7.273438 8.980469 6.027344 10.402344 6.128906 12.050781 L 6.820313 23.601563 C 7.570313 34.425781 12.609375 44.503906 20.820313 51.601563 L 30.050781 59.601563 C 31.179688 60.582031 32.859375 60.582031 33.988281 59.601563 L 43.21875 51.601563 C 51.429688 44.503906 56.46875 34.425781 57.21875 23.601563 L 57.910156 12.058594 C 57.960938 11.261719 57.691406 10.472656 57.160156 9.875 C 56.628906 9.277344 55.878906 8.914063 55.078125 8.871094 Z M 55.191406 23.460938 C 54.511719 33.230469 50.15625 42.382813 43 49.070313 L 43 49 C 43 48.449219 42.550781 48 42 48 C 41.449219 48 41 48.449219 41 49 L 41 50.851563 L 32.660156 58.101563 C 32.285156 58.425781 31.726563 58.425781 31.351563 58.101563 L 23 50.851563 L 23 49 C 23 48.449219 22.550781 48 22 48 C 21.449219 48 21 48.449219 21 49 L 21 49.058594 C 13.847656 42.378906 9.492188 33.234375 8.808594 23.46875 L 8.121094 11.929688 C 8.085938 11.382813 8.5 10.90625 9.050781 10.871094 L 12.671875 10.628906 C 19 10.222656 25.054688 7.871094 30 3.898438 L 31.398438 2.78125 C 31.765625 2.488281 32.285156 2.488281 32.648438 2.78125 L 34 3.898438 C 38.941406 7.863281 44.980469 10.207031 51.300781 10.621094 L 54.921875 10.859375 C 55.46875 10.898438 55.882813 11.371094 55.851563 11.921875 Z "/>
<path style=" stroke:none;fill-rule:nonzero;fill:#8D6C9F;fill-opacity:1;" d="M 27 48 C 26.449219 48 26 48.449219 26 49 L 26 51 C 26 51.550781 26.449219 52 27 52 C 27.550781 52 28 51.550781 28 51 L 28 49 C 28 48.449219 27.550781 48 27 48 Z "/>
<path style=" stroke:none;fill-rule:nonzero;fill:#8D6C9F;fill-opacity:1;" d="M 32 48 C 31.449219 48 31 48.449219 31 49 L 31 51 C 31 51.550781 31.449219 52 32 52 C 32.550781 52 33 51.550781 33 51 L 33 49 C 33 48.449219 32.550781 48 32 48 Z "/>
<path style=" stroke:none;fill-rule:nonzero;fill:#8D6C9F;fill-opacity:1;" d="M 37 48 C 36.449219 48 36 48.449219 36 49 L 36 51 C 36 51.550781 36.449219 52 37 52 C 37.550781 52 38 51.550781 38 51 L 38 49 C 38 48.449219 37.550781 48 37 48 Z "/>
<path style=" stroke:none;fill-rule:nonzero;fill:#8D6C9F;fill-opacity:1;" d="M 35.550781 44 L 29.910156 44 C 25.480469 44 22.269531 38.691406 22.140625 38.460938 C 21.253906 36.816406 20.707031 35.015625 20.53125 33.160156 L 20 28.441406 C 19.933594 27.804688 20.183594 27.179688 20.671875 26.769531 C 21.15625 26.359375 21.816406 26.21875 22.429688 26.390625 C 23.488281 26.6875 24.417969 27.320313 25.078125 28.199219 L 25.328125 19 C 25.34375 18.125 25.796875 17.3125 26.53125 16.835938 C 27.269531 16.359375 28.195313 16.28125 29 16.628906 C 29.171875 15.441406 30.191406 14.558594 31.394531 14.558594 C 32.597656 14.558594 33.617188 15.441406 33.789063 16.628906 C 34.601563 16.257813 35.546875 16.320313 36.300781 16.800781 C 37.054688 17.277344 37.511719 18.105469 37.519531 19 L 37.519531 19.871094 C 38.316406 19.527344 39.230469 19.597656 39.964844 20.058594 C 40.699219 20.515625 41.164063 21.304688 41.210938 22.171875 C 41.210938 22.550781 41.960938 32.039063 41.960938 35.488281 C 41.972656 37.003906 41.722656 38.511719 41.21875 39.941406 C 40.414063 42.382813 38.121094 44.023438 35.550781 44 Z M 22 28.339844 L 22.519531 33 C 22.664063 34.589844 23.125 36.132813 23.878906 37.539063 C 25.238281 42.078125 26.621094 42.058594 29.878906 42.058594 L 35.519531 42.058594 C 37.265625 42.054688 38.808594 40.917969 39.328125 39.25 C 39.769531 38.027344 39.996094 36.738281 40 35.441406 C 40 32.070313 39.261719 22.351563 39.25 22.25 C 39.25 21.890625 38.960938 21.601563 38.601563 21.601563 C 38.242188 21.601563 37.949219 21.890625 37.949219 22.25 L 37.949219 27.871094 C 37.949219 28.421875 37.503906 28.871094 36.949219 28.871094 L 36.800781 28.871094 C 36.246094 28.871094 35.800781 28.421875 35.800781 27.871094 L 35.519531 19 C 35.519531 18.652344 35.238281 18.371094 34.890625 18.371094 C 34.542969 18.371094 34.261719 18.652344 34.261719 19 L 34.261719 27.859375 C 34.261719 28.414063 33.8125 28.859375 33.261719 28.859375 C 32.707031 28.859375 32.261719 28.414063 32.261719 27.859375 L 31.851563 17 C 31.851563 16.765625 31.660156 16.574219 31.425781 16.574219 C 31.191406 16.574219 31 16.765625 31 17 L 30.628906 28 C 30.628906 28.550781 30.183594 29 29.628906 29 C 29.078125 29 28.628906 28.550781 28.628906 28 L 28.628906 19 C 28.589844 18.683594 28.324219 18.449219 28.003906 18.449219 C 27.6875 18.449219 27.417969 18.683594 27.378906 19 L 27 32.390625 L 27 32.460938 C 27.546875 33.816406 28.867188 34.703125 30.328125 34.699219 C 30.882813 34.699219 31.328125 35.148438 31.328125 35.699219 C 31.328125 36.253906 30.882813 36.699219 30.328125 36.699219 C 28.050781 36.707031 26 35.324219 25.148438 33.210938 L 23.890625 30.101563 C 23.558594 29.257813 22.863281 28.613281 22 28.339844 Z M 21.878906 28.339844 Z "/>
<path style=" stroke:none;fill-rule:nonzero;fill:#7DD8BA;fill-opacity:1;" d="M 19.5 17 L 20.738281 19.261719 L 23 20.5 L 20.738281 21.738281 L 19.5 24 L 18.261719 21.738281 L 16 20.5 L 18.261719 19.261719 Z "/>
<path style=" stroke:none;fill-rule:nonzero;fill:#7DD8BA;fill-opacity:1;" d="M 47.421875 25 L 48.269531 26.570313 L 49.839844 27.421875 L 48.269531 28.28125 L 47.421875 29.839844 L 46.558594 28.28125 L 45 27.421875 L 46.558594 26.570313 Z "/>
<path style=" stroke:none;fill-rule:nonzero;fill:#FFF7F0;fill-opacity:1;" d="M 35.648438 36 L 36.230469 37.070313 L 37.300781 37.648438 L 36.230469 38.230469 L 35.648438 39.300781 L 35.058594 38.230469 L 34 37.648438 L 35.058594 37.070313 Z "/>
</g>
</svg>
