<?xml version="1.0" encoding="UTF-8"?>
<svg xmlns="http://www.w3.org/2000/svg" xmlns:xlink="http://www.w3.org/1999/xlink" viewBox="0 0 64 64" version="1.1">
<g id="surface1">
<path style=" stroke:none;fill-rule:nonzero;fill:#F9E3AE;fill-opacity:1;" d="M 6.460938 56 L 6.460938 8.691406 C 6.449219 7.96875 6.828125 7.300781 7.449219 6.9375 C 8.070313 6.574219 8.835938 6.570313 9.460938 6.929688 L 53.199219 30.578125 C 53.847656 30.929688 54.25 31.605469 54.25 32.339844 C 54.25 33.074219 53.847656 33.75 53.199219 34.101563 L 9.410156 57.738281 C 8.792969 58.074219 8.046875 58.058594 7.445313 57.703125 C 6.839844 57.347656 6.46875 56.699219 6.460938 56 Z "/>
<path style=" stroke:none;fill-rule:nonzero;fill:#72CAAF;fill-opacity:1;" d="M 6.460938 57.5 L 6.460938 8.691406 C 6.449219 7.96875 6.828125 7.300781 7.449219 6.9375 C 8.070313 6.574219 8.835938 6.570313 9.460938 6.929688 L 42 24.539063 C 42 24.539063 6.460938 59 6.460938 57.5 Z "/>
<path style=" stroke:none;fill-rule:nonzero;fill:#85CBF8;fill-opacity:1;" d="M 6.460938 56 L 6.460938 8.691406 C 6.460938 14.128906 6.171875 6.691406 7.460938 7.378906 L 41.460938 39.378906 C 42.859375 40.140625 41.191406 40.589844 39.789063 41.378906 L 9.410156 57.738281 C 8.792969 58.074219 8.046875 58.058594 7.445313 57.703125 C 6.839844 57.347656 6.46875 56.699219 6.460938 56 Z "/>
<path style=" stroke:none;fill-rule:nonzero;fill:#6FC6F0;fill-opacity:1;" d="M 7 56.871094 L 7 8.871094 C 7 8.316406 7.449219 7.871094 8 7.871094 C 10.210938 7.871094 12 9.660156 12 11.871094 L 12 54.871094 C 12 56.527344 10.65625 57.871094 9 57.871094 L 8 57.871094 C 7.449219 57.871094 7 57.421875 7 56.871094 Z "/>
<path style=" stroke:none;fill-rule:nonzero;fill:#ED7899;fill-opacity:1;" d="M 33.941406 32.261719 L 41.5 39.371094 C 42.898438 40.128906 41.230469 40.578125 39.828125 41.371094 L 7.828125 58 C 6.5 58.710938 33.941406 32.261719 33.941406 32.261719 Z "/>
<path style=" stroke:none;fill-rule:nonzero;fill:#8D6C9F;fill-opacity:1;" d="M 54.21875 29 L 10.429688 5.359375 C 9.492188 4.84375 8.347656 4.867188 7.429688 5.421875 C 7.34375 5.480469 7.261719 5.542969 7.179688 5.609375 C 7.128906 5.640625 7.078125 5.671875 7.03125 5.710938 C 6.367188 6.285156 5.992188 7.121094 6 8 L 6 55.300781 C 6 56.359375 6.554688 57.339844 7.464844 57.878906 C 8.371094 58.421875 9.5 58.445313 10.429688 57.941406 L 54.21875 34.289063 C 55.191406 33.765625 55.796875 32.753906 55.796875 31.648438 C 55.796875 30.546875 55.191406 29.535156 54.21875 29.011719 Z M 8 55.378906 C 8 55.378906 8 55.328125 8 55.300781 L 8 8 L 25.558594 24.699219 C 25.960938 25.082031 26.59375 25.066406 26.976563 24.664063 C 27.355469 24.265625 27.339844 23.632813 26.941406 23.25 L 10.679688 7.78125 L 40.890625 24.089844 Z M 53.269531 32.53125 L 42.691406 38.238281 L 37.269531 33.078125 C 36.871094 32.699219 36.234375 32.714844 35.855469 33.113281 C 35.472656 33.515625 35.488281 34.148438 35.890625 34.53125 L 40.839844 39.238281 L 10.839844 55.421875 L 42.738281 25.089844 L 53.269531 30.769531 C 53.59375 30.945313 53.796875 31.28125 53.796875 31.648438 C 53.796875 32.015625 53.59375 32.355469 53.269531 32.53125 Z "/>
<path style=" stroke:none;fill-rule:nonzero;fill:#8D6C9F;fill-opacity:1;" d="M 32.519531 28.558594 L 30.25 26.398438 C 29.847656 26.019531 29.214844 26.035156 28.835938 26.433594 C 28.453125 26.835938 28.46875 27.46875 28.871094 27.851563 L 31.140625 30 C 31.539063 30.382813 32.175781 30.367188 32.554688 29.964844 C 32.9375 29.566406 32.921875 28.929688 32.519531 28.550781 Z "/>
<path style=" stroke:none;fill-rule:nonzero;fill:#8D6C9F;fill-opacity:1;" d="M 13 20.648438 L 11 20.648438 C 10.449219 20.648438 10 21.097656 10 21.648438 C 10 22.203125 10.449219 22.648438 11 22.648438 L 13 22.648438 C 13.550781 22.648438 14 22.203125 14 21.648438 C 14 21.097656 13.550781 20.648438 13 20.648438 Z "/>
<path style=" stroke:none;fill-rule:nonzero;fill:#8D6C9F;fill-opacity:1;" d="M 13 25.648438 L 11 25.648438 C 10.449219 25.648438 10 26.097656 10 26.648438 C 10 27.203125 10.449219 27.648438 11 27.648438 L 13 27.648438 C 13.550781 27.648438 14 27.203125 14 26.648438 C 14 26.097656 13.550781 25.648438 13 25.648438 Z "/>
<path style=" stroke:none;fill-rule:nonzero;fill:#8D6C9F;fill-opacity:1;" d="M 13 30.648438 L 11 30.648438 C 10.449219 30.648438 10 31.097656 10 31.648438 C 10 32.203125 10.449219 32.648438 11 32.648438 L 13 32.648438 C 13.550781 32.648438 14 32.203125 14 31.648438 C 14 31.097656 13.550781 30.648438 13 30.648438 Z "/>
<path style=" stroke:none;fill-rule:nonzero;fill:#8D6C9F;fill-opacity:1;" d="M 13 35.648438 L 11 35.648438 C 10.449219 35.648438 10 36.097656 10 36.648438 C 10 37.203125 10.449219 37.648438 11 37.648438 L 13 37.648438 C 13.550781 37.648438 14 37.203125 14 36.648438 C 14 36.097656 13.550781 35.648438 13 35.648438 Z "/>
<path style=" stroke:none;fill-rule:nonzero;fill:#8D6C9F;fill-opacity:1;" d="M 13 40.648438 L 11 40.648438 C 10.449219 40.648438 10 41.097656 10 41.648438 C 10 42.203125 10.449219 42.648438 11 42.648438 L 13 42.648438 C 13.550781 42.648438 14 42.203125 14 41.648438 C 14 41.097656 13.550781 40.648438 13 40.648438 Z "/>
<path style=" stroke:none;fill-rule:nonzero;fill:#8D6C9F;fill-opacity:1;" d="M 13 45.648438 L 11 45.648438 C 10.449219 45.648438 10 46.097656 10 46.648438 C 10 47.203125 10.449219 47.648438 11 47.648438 L 13 47.648438 C 13.550781 47.648438 14 47.203125 14 46.648438 C 14 46.097656 13.550781 45.648438 13 45.648438 Z "/>
<path style=" stroke:none;fill-rule:nonzero;fill:#8D6C9F;fill-opacity:1;" d="M 13 15.648438 L 11 15.648438 C 10.449219 15.648438 10 16.097656 10 16.648438 C 10 17.203125 10.449219 17.648438 11 17.648438 L 13 17.648438 C 13.550781 17.648438 14 17.203125 14 16.648438 C 14 16.097656 13.550781 15.648438 13 15.648438 Z "/>
</g>
</svg>
