<svg xmlns="http://www.w3.org/2000/svg" viewBox="0 0 58 58"><g id="Layer_2" data-name="Layer 2"><g id="reactions"><g id="settings"><g id="surface1"><path d="M54.91,24l-6.44-1.61a19.84,19.84,0,0,0-1-2.47l3.43-5.7a2.8,2.8,0,0,0-.43-3.42L47.21,7.57a2.8,2.8,0,0,0-3.42-.43l-5.7,3.43a19.93,19.93,0,0,0-2.48-1L34,3.09A2.79,2.79,0,0,0,31.28,1H26.72A2.79,2.79,0,0,0,24,3.09L22.39,9.53a19.84,19.84,0,0,0-2.47,1L14.21,7.14a2.8,2.8,0,0,0-3.42.43L7.57,10.79a2.8,2.8,0,0,0-.43,3.42l3.43,5.7a19.93,19.93,0,0,0-1,2.48L3.09,24A2.79,2.79,0,0,0,1,26.72v4.55A2.79,2.79,0,0,0,3.09,34L9.53,35.6a19.84,19.84,0,0,0,1,2.47L7.14,43.79a2.8,2.8,0,0,0,.43,3.42l3.22,3.22a2.8,2.8,0,0,0,3.42.43l5.7-3.43a19.93,19.93,0,0,0,2.48,1L24,54.91A2.79,2.79,0,0,0,26.72,57h4.55A2.79,2.79,0,0,0,34,54.91l1.61-6.44a19.84,19.84,0,0,0,2.47-1l5.7,3.43a2.8,2.8,0,0,0,3.42-.43l3.22-3.22a2.8,2.8,0,0,0,.43-3.42l-3.42-5.7a19.87,19.87,0,0,0,1-2.48L54.89,34A2.8,2.8,0,0,0,57,31.28V26.72A2.79,2.79,0,0,0,54.91,24Z" fill="#c2cde7"/><path d="M48.47,22.39a19.84,19.84,0,0,0-1-2.47l3.43-5.7a2.8,2.8,0,0,0-.43-3.42l-.65-.65L10.35,49.58c.6.57,1.22,1.1,1.87,1.62a2.83,2.83,0,0,0,2-.34l5.7-3.43a19.93,19.93,0,0,0,2.48,1l.71,2.9L51.33,23.1Z" fill="#d3dded"/><path d="M47.86,8.21l-.49-.48H42.8l-.67.41-34,34-1,1.66a2.84,2.84,0,0,0-.4,1.56c.53.77,1.1,1.52,1.71,2.24Z" fill="#d3dded"/><path d="M35.61,9.53l-.71-2.9L6.67,34.9l2.9.71c.11.3.22.61.35.91L36.52,9.88C36.22,9.75,35.91,9.67,35.61,9.53Z" fill="#d3dded"/><path d="M41.57,29A12.57,12.57,0,1,1,29,16.43,12.57,12.57,0,0,1,41.57,29Z" fill="#acb7d0"/><path d="M35.77,29A6.77,6.77,0,1,1,29,22.23,6.77,6.77,0,0,1,35.77,29Z" fill="#f9dd8f"/><path d="M41.57,28H39.63a1,1,0,0,0,0,1.94h1.94a1,1,0,0,0,0-1.94Z" fill="#8d6c9f"/><path d="M29,38.67a1,1,0,0,0-1,1v1.94a1,1,0,0,0,1.94,0V39.63A1,1,0,0,0,29,38.67Z" fill="#8d6c9f"/><path d="M37.21,35.83a1,1,0,0,0-1.37,1.37l1.37,1.36a1,1,0,0,0,1.36-1.36Z" fill="#8d6c9f"/><path d="M36.52,22.45a1,1,0,0,0,.69-.28l1.36-1.37a1,1,0,0,0-1.36-1.36L35.84,20.8a1,1,0,0,0-.21,1.06,1,1,0,0,0,.9.6Z" fill="#8d6c9f"/><path d="M41,32.81l-1.79-.73a1,1,0,0,0-1.08,0,1,1,0,0,0-.41,1,1,1,0,0,0,.75.76l1.79.73a1,1,0,0,0,1.37-1,.94.94,0,0,0-.64-.76Z" fill="#8d6c9f"/><path d="M34.05,38.42a1,1,0,0,0-.78-.62,1,1,0,0,0-1,1.37L33,41a1,1,0,0,0,.78.61,1,1,0,0,0,.9-.38,1,1,0,0,0,.1-1Z" fill="#8d6c9f"/><path d="M37.9,25.22a1,1,0,0,0,1.27.51L41,25a1,1,0,0,0,.48-1.25,1,1,0,0,0-1.24-.53L38.42,24A1,1,0,0,0,37.9,25.22Z" fill="#8d6c9f"/><path d="M55.81,23.83l-6.66-1.67a21.33,21.33,0,0,0-1.08-2.56l3.54-5.9a2.89,2.89,0,0,0-.44-3.55L47.84,6.83a2.9,2.9,0,0,0-3.54-.44L38.4,9.93a21.27,21.27,0,0,0-2.56-1.07L34.18,2.19A2.9,2.9,0,0,0,31.36,0H26.64a2.89,2.89,0,0,0-2.81,2.19L22.16,8.85A21.33,21.33,0,0,0,19.6,9.93L13.71,6.39a2.9,2.9,0,0,0-3.54.44L6.83,10.16a2.89,2.89,0,0,0-.44,3.55l3.54,5.9a22,22,0,0,0-1.07,2.56L2.19,23.84A2.89,2.89,0,0,0,0,26.64v4.72a2.89,2.89,0,0,0,2.19,2.81l6.66,1.67A21.33,21.33,0,0,0,9.93,38.4L6.39,44.29a2.89,2.89,0,0,0,.44,3.55l3.33,3.33a2.9,2.9,0,0,0,3.54.44l5.9-3.54a21.27,21.27,0,0,0,2.56,1.07l1.66,6.67A2.9,2.9,0,0,0,26.64,58h4.72a2.89,2.89,0,0,0,2.81-2.19l1.67-6.66a21.33,21.33,0,0,0,2.56-1.08l5.9,3.54a2.9,2.9,0,0,0,3.54-.44l3.33-3.33a2.89,2.89,0,0,0,.44-3.55l-3.54-5.9a22,22,0,0,0,1.07-2.56l6.67-1.67A2.89,2.89,0,0,0,58,31.36V26.64A2.89,2.89,0,0,0,55.81,23.83Zm.26,7.53a1,1,0,0,1-.74,1L48.66,34a1.92,1.92,0,0,0-1.35,1.26,17.92,17.92,0,0,1-1,2.31,1.94,1.94,0,0,0,.06,1.83l3.54,5.91a1,1,0,0,1-.15,1.18l-3.33,3.33a1,1,0,0,1-1.18.15L39.39,46.4a1.93,1.93,0,0,0-1.85-.07,20.32,20.32,0,0,1-2.32,1A1.92,1.92,0,0,0,34,48.65L32.3,55.32a1,1,0,0,1-1,.74H26.64a1,1,0,0,1-1-.74L24,48.65a1.92,1.92,0,0,0-1.26-1.35,19.45,19.45,0,0,1-2.31-1,2,2,0,0,0-.87-.2,1.94,1.94,0,0,0-1,.27l-5.91,3.54a1,1,0,0,1-1.18-.15L8.18,46.46A1,1,0,0,1,8,45.28l3.57-5.89a1.93,1.93,0,0,0,.07-1.85,20.32,20.32,0,0,1-1-2.32A1.92,1.92,0,0,0,9.35,34L2.68,32.3a1,1,0,0,1-.74-1V26.64a1,1,0,0,1,.74-1L9.35,24a1.92,1.92,0,0,0,1.35-1.26,17.92,17.92,0,0,1,1-2.31,2,2,0,0,0-.07-1.83L8.06,12.7a1,1,0,0,1,.15-1.18l3.33-3.33A1,1,0,0,1,12.72,8l5.89,3.56a1.93,1.93,0,0,0,1.85.07,20.32,20.32,0,0,1,2.32-1A1.92,1.92,0,0,0,24,9.35L25.7,2.68a1,1,0,0,1,1-.74h4.72a1,1,0,0,1,1,.74L34,9.35a1.93,1.93,0,0,0,1.25,1.35,18.92,18.92,0,0,1,2.32,1,1.94,1.94,0,0,0,1.8-.07L45.3,8.06a1,1,0,0,1,1.18.15l3.33,3.33A1,1,0,0,1,50,12.72L46.4,18.61a1.93,1.93,0,0,0-.07,1.85,20.32,20.32,0,0,1,1,2.32A1.92,1.92,0,0,0,48.65,24l6.67,1.66a1,1,0,0,1,.74,1Z" fill="#8d6c9f"/><path d="M29,21.27A7.73,7.73,0,1,0,36.73,29,7.73,7.73,0,0,0,29,21.27ZM29,34.8A5.8,5.8,0,1,1,34.8,29,5.8,5.8,0,0,1,29,34.8Z" fill="#8d6c9f"/><path d="M23.58,39.26a11.6,11.6,0,0,1,2.65-21.52,1,1,0,0,0,.73-.67,1,1,0,0,0-1.2-1.21A13.54,13.54,0,0,0,22.67,41a1,1,0,0,0,.91-1.71Z" fill="#8d6c9f"/><path d="M30.56,17.51a11.24,11.24,0,0,1,2.05.46,1,1,0,0,0,.59-1.84,13.68,13.68,0,0,0-2.38-.54,1,1,0,1,0-.25,1.94Z" fill="#8d6c9f"/><path d="M30.93,29A1.93,1.93,0,1,1,29,27.07,1.92,1.92,0,0,1,30.93,29Z" fill="#8d6c9f"/><path d="M29.48,6.77,30.68,9l2.19,1.2-2.19,1.2-1.2,2.18-1.2-2.18-2.18-1.2L28.28,9Z" fill="#fff8f8"/><path d="M15.87,38.67l.82,1.51,1.52.83-1.52.82-.82,1.52L15,41.83,13.53,41,15,40.18Z" fill="#fff8f8"/><path d="M42.87,16.43l.57,1,1,.56-1,.56-.57,1-.56-1-1-.56,1-.56Z" fill="#fff8f8"/></g></g></g></g></svg>