<?xml version="1.0" encoding="utf-8"?><!-- Generator: Adobe Illustrator 26.0.2, SVG Export Plug-In . SVG Version: 6.00 Build 0)  -->
<svg version="1.1" id="Layer_1" xmlns="http://www.w3.org/2000/svg"
    xmlns:xlink="http://www.w3.org/1999/xlink" x="0px" y="0px" viewBox="0 0 13.6 12.1"
    style="enable-background:new 0 0 13.6 12.1;" xml:space="preserve">
<path d="M0.9,12.1c0,0-0.1,0-0.1,0c-0.3-0.1-0.4-0.3-0.5-0.5c-0.1-0.4-0.1-0.7-0.1-1.1c0-3.8,2.8-7.1,6.6-7.7V0.8
	c0-0.3,0.2-0.6,0.5-0.7C7.6-0.1,8,0,8.2,0.2l5,5c0.2,0.2,0.3,0.4,0.3,0.6s-0.1,0.5-0.3,0.6l-5,5c-0.2,0.2-0.6,0.3-0.8,0.2
	c-0.3-0.1-0.5-0.4-0.5-0.7l0-2.3c-2.2,0.1-4.2,1.4-5.4,3.3C1.3,12,1.1,12.1,0.9,12.1L0.9,12.1z M7.7,1.1v1.8c0,0.4-0.3,0.7-0.7,0.8
	c-3.4,0.4-5.9,3.4-5.9,6.8v0.2c1.4-1.8,3.5-3,5.8-3.1c0.2,0,0.4,0.1,0.6,0.2C7.6,8,7.7,8.2,7.7,8.4v2.1l4.7-4.7v0L7.7,1.1z" />
</svg>
