<svg xmlns="http://www.w3.org/2000/svg" viewBox="0 0 57 57"><g id="Layer_2" data-name="Layer 2"><g id="reactions"><g id="surface1"><path d="M56,24.57V54.05a2,2,0,0,1-2,2H24.57a2,2,0,0,1-2-2V24.57a2,2,0,0,1,2-2H54.05A2,2,0,0,1,56,24.57Z" fill="#acb7d0"/><path d="M39.31,26.53V52.09A3.93,3.93,0,0,1,35.38,56H24.57a2,2,0,0,1-2-2V24.57a2,2,0,0,1,2-2H35.38A3.93,3.93,0,0,1,39.31,26.53Z" fill="#c2cde7"/><path d="M34.4,3V32.43a2,2,0,0,1-2,2H3a2,2,0,0,1-2-2V3A2,2,0,0,1,3,1H32.43A2,2,0,0,1,34.4,3Z" fill="#85cbf8"/><path d="M17.69,4.91V30.47a3.93,3.93,0,0,1-3.93,3.93H3a2,2,0,0,1-2-2V3A2,2,0,0,1,3,1H13.76A3.93,3.93,0,0,1,17.69,4.91Z" fill="#9fddff"/><path d="M40.61,31.07a1,1,0,0,0-.92-.63,1,1,0,0,0-.92.63L32.48,47.78a1,1,0,0,0,1.84.69l2-5.26h6.78l2,5.26a1,1,0,0,0,.92.64.87.87,0,0,0,.35-.07,1,1,0,0,0,.57-1.26ZM37,41.25l2.65-7,2.65,7Z" fill="#8d6c9f"/><path d="M3.93,37.34a1,1,0,0,0-1,1v2a1,1,0,1,0,2,0v-2A1,1,0,0,0,3.93,37.34Z" fill="#8d6c9f"/><path d="M8.84,37.34a1,1,0,0,0-1,1v2a1,1,0,1,0,2,0v-2A1,1,0,0,0,8.84,37.34Z" fill="#8d6c9f"/><path d="M13.76,37.34a1,1,0,0,0-1,1v2a1,1,0,1,0,2,0v-2A1,1,0,0,0,13.76,37.34Z" fill="#8d6c9f"/><path d="M18.67,37.34a1,1,0,0,0-1,1v2a1,1,0,1,0,2,0v-2A1,1,0,0,0,18.67,37.34Z" fill="#8d6c9f"/><path d="M38.33,19.66a1,1,0,0,0,1-1v-2a1,1,0,1,0-2,0v2A1,1,0,0,0,38.33,19.66Z" fill="#8d6c9f"/><path d="M43.24,19.66a1,1,0,0,0,1-1v-2a1,1,0,1,0-2,0v2A1,1,0,0,0,43.24,19.66Z" fill="#8d6c9f"/><path d="M48.16,19.66a1,1,0,0,0,1-1v-2a1,1,0,1,0-2,0v2A1,1,0,0,0,48.16,19.66Z" fill="#8d6c9f"/><path d="M53.07,19.66a1,1,0,0,0,1-1v-2a1,1,0,1,0-2,0v2A1,1,0,0,0,53.07,19.66Z" fill="#8d6c9f"/><path d="M54.05,21.62H35.38V3a3,3,0,0,0-3-2.95H3A3,3,0,0,0,0,3V32.43a3,3,0,0,0,3,3H21.62V54.05a3,3,0,0,0,2.95,3H54.05a3,3,0,0,0,3-3V24.57A3,3,0,0,0,54.05,21.62ZM3,33.41a1,1,0,0,1-1-1V3A1,1,0,0,1,3,2H32.43a1,1,0,0,1,1,1V32.43a1,1,0,0,1-1,1ZM55,54.05a1,1,0,0,1-1,1H24.57a1,1,0,0,1-1-1V35.38h8.84a3,3,0,0,0,3-3V23.59H54.05a1,1,0,0,1,1,1Z" fill="#8d6c9f"/><path d="M25.54,25.52a1,1,0,0,0-1-1c-1.78,0-4.06-1.36-6-3.18,2.48-2.79,4-6.07,4-8.61v-1h3.93a1,1,0,1,0,0-2H18.66v-2a1,1,0,0,0-2,0v2H8.83a1,1,0,0,0,0,2h11.8v1c0,2.07-1.32,4.8-3.4,7.18-1.47-1.74-2.5-3.67-2.5-5.22a1,1,0,0,0-2,0c0,2.07,1.27,4.51,3.09,6.64a15.27,15.27,0,0,1-5.35,3.27,1,1,0,0,0,.31,1.91.84.84,0,0,0,.31-.05,17,17,0,0,0,6.08-3.72c2.28,2.17,5.05,3.75,7.36,3.75A1,1,0,0,0,25.54,25.52Z" fill="#8d6c9f"/></g></g></g></svg>